{"glyphs":{"0":{"ha":778,"x_min":0,"x_max":0,"o":"m 396 -10 b 56 479 118 -10 56 271 b 386 970 56 689 116 970 b 724 477 632 970 724 720 b 396 -10 724 236 634 -10 m 394 78 b 629 479 572 78 629 283 b 386 880 629 677 571 880 b 148 479 191 880 148 663 b 394 78 148 298 192 78 "},"1":{"ha":778,"x_min":0,"x_max":0,"o":"m 502 958 l 502 0 l 410 0 l 410 731 l 170 731 l 170 804 l 332 804 b 414 876 385 804 414 824 l 414 958 "},"2":{"ha":778,"x_min":0,"x_max":0,"o":"m 724 85 l 724 0 l 55 0 l 55 85 b 580 689 283 227 580 431 b 385 884 580 806 512 884 b 170 636 238 884 172 778 l 79 642 b 385 968 79 827 191 968 b 673 687 556 968 673 865 b 193 85 673 431 405 212 "},"3":{"ha":778,"x_min":0,"x_max":0,"o":"m 381 -10 b 47 286 191 -10 47 95 l 136 290 b 382 76 136 156 235 76 b 627 279 522 76 627 151 b 335 466 627 444 461 467 l 335 543 b 575 712 473 543 575 583 b 380 882 575 816 492 882 b 180 699 260 882 180 810 l 92 705 b 378 968 92 868 216 968 b 665 722 534 968 665 871 b 475 511 665 602 580 538 b 715 271 608 488 715 414 b 381 -10 715 94 568 -10 "},"4":{"ha":778,"x_min":0,"x_max":0,"o":"m 752 314 l 752 229 l 596 229 l 596 0 l 504 0 l 504 229 l 24 229 l 24 288 l 511 958 l 596 958 l 596 314 m 504 314 l 504 821 l 142 314 "},"5":{"ha":778,"x_min":0,"x_max":0,"o":"m 408 640 b 717 320 581 640 717 499 b 385 -10 717 139 570 -10 b 61 264 224 -10 96 105 l 148 288 b 385 75 174 169 256 75 b 623 321 522 75 623 187 b 395 555 623 453 531 555 b 183 439 313 555 234 514 l 91 465 l 178 958 l 671 958 l 671 872 l 252 872 l 197 556 b 408 640 262 613 333 640 "},"6":{"ha":778,"x_min":0,"x_max":0,"o":"m 453 613 b 715 307 599 589 715 462 b 390 -10 715 133 570 -10 b 65 306 211 -10 65 132 b 115 476 65 370 85 427 l 404 958 l 509 958 l 292 596 b 453 613 342 616 397 623 m 390 77 b 624 308 519 77 624 180 b 390 538 624 434 519 538 b 156 307 262 538 156 435 b 390 77 156 180 260 77 "},"7":{"ha":778,"x_min":0,"x_max":0,"o":"m 730 958 l 730 902 l 261 0 l 158 0 l 621 873 l 45 873 l 45 958 "},"8":{"ha":778,"x_min":0,"x_max":0,"o":"m 388 -10 b 66 268 226 -10 66 82 b 249 519 66 390 139 483 b 122 729 170 557 122 634 b 389 968 122 883 256 968 b 657 724 536 968 657 873 b 529 519 657 631 606 555 b 708 269 640 481 708 388 b 388 -10 708 81 551 -10 m 392 547 b 568 718 494 547 568 615 b 391 890 568 823 494 890 b 214 724 300 890 214 833 b 392 547 214 618 285 547 m 387 70 b 616 277 509 70 616 138 b 387 484 616 404 520 484 b 157 278 253 484 157 404 b 387 70 157 138 268 70 "},"9":{"ha":778,"x_min":0,"x_max":0,"o":"m 397 968 b 722 652 576 968 722 826 b 672 482 722 588 702 532 l 384 0 l 278 0 l 496 362 b 334 345 446 342 390 336 b 73 651 189 369 73 496 b 397 968 73 825 218 968 m 397 420 b 631 651 526 420 631 524 b 397 882 631 779 527 882 b 163 650 269 882 163 778 b 397 420 163 524 269 420 "},"A":{"ha":883,"x_min":0,"x_max":0,"o":"m 403 958 l 481 958 l 836 0 l 735 0 l 654 231 l 231 231 l 149 0 l 47 0 m 625 312 l 442 828 l 260 312 "},"Á":{"ha":883,"x_min":0,"x_max":0,"o":"m 544 1238 l 640 1238 l 465 1044 l 396 1044 m 403 958 l 481 958 l 836 0 l 735 0 l 654 231 l 231 231 l 149 0 l 47 0 m 625 312 l 442 828 l 260 312 "},"Ă":{"ha":883,"x_min":0,"x_max":0,"o":"m 440 1059 b 233 1238 301 1059 233 1122 l 298 1238 b 440 1114 298 1156 353 1114 b 581 1238 529 1114 581 1157 l 646 1238 b 440 1059 646 1120 575 1059 m 403 958 l 481 958 l 836 0 l 735 0 l 654 231 l 231 231 l 149 0 l 47 0 m 625 312 l 442 828 l 260 312 "},"Ắ":{"ha":883,"x_min":0,"x_max":0,"o":"m 544 1519 l 640 1519 l 465 1325 l 396 1325 m 440 1059 b 233 1238 301 1059 233 1122 l 298 1238 b 440 1114 298 1156 353 1114 b 581 1238 529 1114 581 1157 l 646 1238 b 440 1059 646 1120 575 1059 m 403 958 l 481 958 l 836 0 l 735 0 l 654 231 l 231 231 l 149 0 l 47 0 m 625 312 l 442 828 l 260 312 "},"Ằ":{"ha":883,"x_min":0,"x_max":0,"o":"m 236 1519 l 332 1519 l 475 1325 l 404 1325 m 440 1059 b 233 1238 301 1059 233 1122 l 298 1238 b 440 1114 298 1156 353 1114 b 581 1238 529 1114 581 1157 l 646 1238 b 440 1059 646 1120 575 1059 m 403 958 l 481 958 l 836 0 l 735 0 l 654 231 l 231 231 l 149 0 l 47 0 m 625 312 l 442 828 l 260 312 "},"Ẵ":{"ha":883,"x_min":0,"x_max":0,"o":"m 535 1339 b 346 1459 422 1339 421 1460 b 277 1351 303 1460 277 1419 l 222 1351 b 349 1517 222 1456 271 1518 b 536 1397 454 1518 459 1397 b 600 1512 573 1397 600 1441 l 656 1512 b 535 1339 656 1404 608 1339 m 440 1059 b 233 1238 301 1059 233 1122 l 298 1238 b 440 1114 298 1156 353 1114 b 581 1238 529 1114 581 1157 l 646 1238 b 440 1059 646 1120 575 1059 m 403 958 l 481 958 l 836 0 l 735 0 l 654 231 l 231 231 l 149 0 l 47 0 m 625 312 l 442 828 l 260 312 "},"Ǎ":{"ha":883,"x_min":0,"x_max":0,"o":"m 235 1238 l 311 1238 l 439 1106 l 570 1238 l 645 1238 l 439 1029 m 403 958 l 481 958 l 836 0 l 735 0 l 654 231 l 231 231 l 149 0 l 47 0 m 625 312 l 442 828 l 260 312 "},"Â":{"ha":883,"x_min":0,"x_max":0,"o":"m 439 1251 l 644 1035 l 570 1035 l 439 1171 l 311 1035 l 235 1035 m 403 958 l 481 958 l 836 0 l 735 0 l 654 231 l 231 231 l 149 0 l 47 0 m 625 312 l 442 828 l 260 312 "},"Ấ":{"ha":883,"x_min":0,"x_max":0,"o":"m 544 1518 l 640 1518 l 465 1324 l 396 1324 m 439 1251 l 644 1035 l 570 1035 l 439 1171 l 311 1035 l 235 1035 m 403 958 l 481 958 l 836 0 l 735 0 l 654 231 l 231 231 l 149 0 l 47 0 m 625 312 l 442 828 l 260 312 "},"Ầ":{"ha":883,"x_min":0,"x_max":0,"o":"m 236 1518 l 332 1518 l 475 1324 l 404 1324 m 439 1251 l 644 1035 l 570 1035 l 439 1171 l 311 1035 l 235 1035 m 403 958 l 481 958 l 836 0 l 735 0 l 654 231 l 231 231 l 149 0 l 47 0 m 625 312 l 442 828 l 260 312 "},"Ẫ":{"ha":883,"x_min":0,"x_max":0,"o":"m 535 1338 b 346 1459 422 1338 421 1459 b 277 1350 303 1459 277 1419 l 222 1350 b 349 1516 222 1455 271 1517 b 536 1396 454 1517 459 1396 b 600 1511 573 1396 600 1440 l 656 1511 b 535 1338 656 1404 608 1338 m 439 1251 l 644 1035 l 570 1035 l 439 1171 l 311 1035 l 235 1035 m 403 958 l 481 958 l 836 0 l 735 0 l 654 231 l 231 231 l 149 0 l 47 0 m 625 312 l 442 828 l 260 312 "},"Ä":{"ha":883,"x_min":0,"x_max":0,"o":"m 277 1238 l 354 1238 l 354 1099 l 277 1099 m 524 1238 l 600 1238 l 600 1099 l 524 1099 m 403 958 l 481 958 l 836 0 l 735 0 l 654 231 l 231 231 l 149 0 l 47 0 m 625 312 l 442 828 l 260 312 "},"À":{"ha":883,"x_min":0,"x_max":0,"o":"m 236 1238 l 332 1238 l 475 1044 l 404 1044 m 403 958 l 481 958 l 836 0 l 735 0 l 654 231 l 231 231 l 149 0 l 47 0 m 625 312 l 442 828 l 260 312 "},"Ā":{"ha":883,"x_min":0,"x_max":0,"o":"m 255 1163 l 627 1163 l 627 1107 l 255 1107 m 403 958 l 481 958 l 836 0 l 735 0 l 654 231 l 231 231 l 149 0 l 47 0 m 625 312 l 442 828 l 260 312 "},"Ą":{"ha":883,"x_min":0,"x_max":0,"o":"m 894 -229 b 748 -309 859 -280 814 -309 b 607 -180 663 -309 607 -260 b 754 0 607 -85 695 -18 l 735 0 l 654 231 l 231 231 l 149 0 l 47 0 l 403 958 l 481 958 l 836 0 b 663 -170 762 -20 663 -83 b 746 -252 663 -227 696 -252 b 846 -196 789 -252 820 -233 m 625 312 l 442 828 l 260 312 "},"Å":{"ha":883,"x_min":0,"x_max":0,"o":"m 438 1023 b 307 1154 365 1023 307 1082 b 438 1286 307 1227 366 1286 b 570 1154 510 1286 570 1227 b 438 1023 570 1081 512 1023 m 438 1074 b 519 1155 484 1074 519 1109 b 438 1234 519 1200 486 1234 b 359 1155 393 1234 359 1200 b 438 1074 359 1109 393 1074 m 403 958 l 481 958 l 836 0 l 735 0 l 654 231 l 231 231 l 149 0 l 47 0 m 625 312 l 442 828 l 260 312 "},"Ã":{"ha":883,"x_min":0,"x_max":0,"o":"m 535 1058 b 346 1179 422 1058 421 1179 b 277 1070 303 1179 277 1139 l 222 1070 b 349 1236 222 1175 271 1237 b 536 1116 454 1237 459 1116 b 600 1231 573 1116 600 1160 l 656 1231 b 535 1058 656 1124 608 1058 m 403 958 l 481 958 l 836 0 l 735 0 l 654 231 l 231 231 l 149 0 l 47 0 m 625 312 l 442 828 l 260 312 "},"Æ":{"ha":1311,"x_min":0,"x_max":0,"o":"m 401 958 l 1225 958 l 1225 876 l 706 876 l 706 521 l 1158 521 l 1158 441 l 706 441 l 706 85 l 1225 85 l 1225 0 l 613 0 l 613 231 l 230 231 l 149 0 l 47 0 m 613 305 l 613 879 l 460 879 l 259 305 "},"B":{"ha":863,"x_min":0,"x_max":0,"o":"m 152 958 l 442 958 b 729 712 603 958 729 885 b 600 507 729 614 671 536 b 776 265 705 481 776 385 b 470 0 776 93 649 0 l 152 0 m 471 538 b 643 707 566 538 643 597 b 444 873 643 817 570 873 l 245 873 l 245 538 m 471 89 b 684 275 610 89 684 151 b 496 457 684 384 614 457 l 245 457 l 245 89 "},"C":{"ha":987,"x_min":0,"x_max":0,"o":"m 524 -10 b 90 481 238 -10 90 197 b 530 970 90 765 238 970 b 920 711 720 970 850 882 l 833 675 b 529 880 785 819 683 880 b 182 484 298 880 182 723 b 524 79 182 256 284 79 b 835 286 675 79 774 143 l 922 251 b 524 -10 846 80 711 -10 "},"Ć":{"ha":987,"x_min":0,"x_max":0,"o":"m 600 1238 l 696 1238 l 520 1044 l 452 1044 m 524 -10 b 90 481 238 -10 90 197 b 530 970 90 765 238 970 b 920 711 720 970 850 882 l 833 675 b 529 880 785 819 683 880 b 182 484 298 880 182 723 b 524 79 182 256 284 79 b 835 286 675 79 774 143 l 922 251 b 524 -10 846 80 711 -10 "},"Č":{"ha":987,"x_min":0,"x_max":0,"o":"m 291 1238 l 366 1238 l 495 1106 l 625 1238 l 701 1238 l 495 1029 m 524 -10 b 90 481 238 -10 90 197 b 530 970 90 765 238 970 b 920 711 720 970 850 882 l 833 675 b 529 880 785 819 683 880 b 182 484 298 880 182 723 b 524 79 182 256 284 79 b 835 286 675 79 774 143 l 922 251 b 524 -10 846 80 711 -10 "},"Ç":{"ha":987,"x_min":0,"x_max":0,"o":"m 922 251 b 569 -8 852 94 733 5 l 518 -90 b 562 -96 534 -91 549 -93 b 680 -216 639 -111 680 -153 b 539 -350 680 -296 624 -350 b 408 -262 483 -350 429 -314 l 461 -240 b 541 -296 473 -273 505 -296 b 625 -220 593 -296 625 -267 b 501 -131 625 -170 579 -136 b 442 -129 484 -130 465 -129 l 512 -10 b 90 481 234 -4 90 201 b 530 970 90 765 238 970 b 920 711 720 970 850 882 l 833 675 b 529 880 785 819 683 880 b 182 484 298 880 182 723 b 524 79 182 256 284 79 b 835 286 675 79 774 143 l 922 251 "},"Ċ":{"ha":987,"x_min":0,"x_max":0,"o":"m 448 1238 l 542 1238 l 542 1099 l 448 1099 m 524 -10 b 90 481 238 -10 90 197 b 530 970 90 765 238 970 b 920 711 720 970 850 882 l 833 675 b 529 880 785 819 683 880 b 182 484 298 880 182 723 b 524 79 182 256 284 79 b 835 286 675 79 774 143 l 922 251 b 524 -10 846 80 711 -10 "},"D":{"ha":987,"x_min":0,"x_max":0,"o":"m 152 958 l 410 958 b 899 472 728 958 899 784 b 409 0 899 172 724 0 l 152 0 m 401 86 b 806 475 656 86 806 210 b 409 872 806 743 677 872 l 245 872 l 245 86 "},"Ǳ":{"ha":1860,"x_min":0,"x_max":0,"o":"m 410 958 b 899 472 728 958 899 784 b 409 0 899 172 724 0 l 152 0 l 152 958 l 410 958 m 1790 886 l 1162 85 l 1788 85 l 1788 0 l 1036 0 l 1036 71 l 1666 872 l 1067 872 l 1067 958 l 1790 958 m 401 86 b 806 475 656 86 806 210 b 409 872 806 743 677 872 l 245 872 l 245 86 l 401 86 "},"Ǆ":{"ha":1860,"x_min":0,"x_max":0,"o":"m 1415 1029 l 1211 1238 l 1286 1238 l 1415 1106 l 1546 1238 l 1621 1238 m 410 958 b 899 472 728 958 899 784 b 409 0 899 172 724 0 l 152 0 l 152 958 l 410 958 m 1790 886 l 1162 85 l 1788 85 l 1788 0 l 1036 0 l 1036 71 l 1666 872 l 1067 872 l 1067 958 l 1790 958 m 401 86 b 806 475 656 86 806 210 b 409 872 806 743 677 872 l 245 872 l 245 86 l 401 86 "},"Ð":{"ha":987,"x_min":0,"x_max":0,"o":"m 410 958 b 899 472 728 958 899 784 b 409 0 899 172 724 0 l 152 0 l 152 448 l 50 448 l 50 511 l 152 511 l 152 958 l 410 958 m 401 86 b 806 475 656 86 806 210 b 409 872 806 743 677 872 l 245 872 l 245 511 l 480 511 l 480 448 l 245 448 l 245 86 l 401 86 "},"Ď":{"ha":987,"x_min":0,"x_max":0,"o":"m 300 1238 l 376 1238 l 505 1106 l 635 1238 l 710 1238 l 505 1029 m 152 958 l 410 958 b 899 472 728 958 899 784 b 409 0 899 172 724 0 l 152 0 m 401 86 b 806 475 656 86 806 210 b 409 872 806 743 677 872 l 245 872 l 245 86 "},"Đ":{"ha":987,"x_min":0,"x_max":0,"o":"m 410 958 b 899 472 728 958 899 784 b 409 0 899 172 724 0 l 152 0 l 152 448 l 50 448 l 50 511 l 152 511 l 152 958 l 410 958 m 401 86 b 806 475 656 86 806 210 b 409 872 806 743 677 872 l 245 872 l 245 511 l 480 511 l 480 448 l 245 448 l 245 86 l 401 86 "},"ǲ":{"ha":1654,"x_min":0,"x_max":0,"o":"m 410 958 b 899 472 728 958 899 784 b 409 0 899 172 724 0 l 152 0 l 152 958 l 410 958 m 401 86 b 806 475 656 86 806 210 b 409 872 806 743 677 872 l 245 872 l 245 86 l 401 86 m 1600 606 l 1156 77 l 1596 77 l 1596 0 l 1036 0 l 1036 66 l 1490 602 l 1059 602 l 1059 677 l 1600 677 "},"ǅ":{"ha":1654,"x_min":0,"x_max":0,"o":"m 410 958 b 899 472 728 958 899 784 b 409 0 899 172 724 0 l 152 0 l 152 958 l 410 958 m 1316 749 l 1112 958 l 1187 958 l 1316 826 l 1447 958 l 1522 958 m 401 86 b 806 475 656 86 806 210 b 409 872 806 743 677 872 l 245 872 l 245 86 l 401 86 m 1600 606 l 1156 77 l 1596 77 l 1596 0 l 1036 0 l 1036 66 l 1490 602 l 1059 602 l 1059 677 l 1600 677 "},"E":{"ha":864,"x_min":0,"x_max":0,"o":"m 152 958 l 779 958 l 779 872 l 245 872 l 245 524 l 725 524 l 725 438 l 245 438 l 245 88 l 779 88 l 779 0 l 152 0 "},"É":{"ha":864,"x_min":0,"x_max":0,"o":"m 570 1238 l 666 1238 l 490 1044 l 422 1044 m 152 958 l 779 958 l 779 872 l 245 872 l 245 524 l 725 524 l 725 438 l 245 438 l 245 88 l 779 88 l 779 0 l 152 0 "},"Ě":{"ha":864,"x_min":0,"x_max":0,"o":"m 261 1238 l 336 1238 l 465 1106 l 595 1238 l 671 1238 l 465 1029 m 152 958 l 779 958 l 779 872 l 245 872 l 245 524 l 725 524 l 725 438 l 245 438 l 245 88 l 779 88 l 779 0 l 152 0 "},"Ê":{"ha":864,"x_min":0,"x_max":0,"o":"m 465 1251 l 670 1035 l 595 1035 l 465 1171 l 336 1035 l 261 1035 m 152 958 l 779 958 l 779 872 l 245 872 l 245 524 l 725 524 l 725 438 l 245 438 l 245 88 l 779 88 l 779 0 l 152 0 "},"Ế":{"ha":864,"x_min":0,"x_max":0,"o":"m 570 1518 l 666 1518 l 490 1324 l 422 1324 m 465 1251 l 670 1035 l 595 1035 l 465 1171 l 336 1035 l 261 1035 m 152 958 l 779 958 l 779 872 l 245 872 l 245 524 l 725 524 l 725 438 l 245 438 l 245 88 l 779 88 l 779 0 l 152 0 "},"Ề":{"ha":864,"x_min":0,"x_max":0,"o":"m 262 1518 l 358 1518 l 501 1324 l 430 1324 m 465 1251 l 670 1035 l 595 1035 l 465 1171 l 336 1035 l 261 1035 m 152 958 l 779 958 l 779 872 l 245 872 l 245 524 l 725 524 l 725 438 l 245 438 l 245 88 l 779 88 l 779 0 l 152 0 "},"Ễ":{"ha":864,"x_min":0,"x_max":0,"o":"m 561 1338 b 372 1459 448 1338 447 1459 b 302 1350 329 1459 302 1419 l 248 1350 b 375 1516 248 1455 297 1517 b 562 1396 479 1517 485 1396 b 626 1511 599 1396 626 1440 l 682 1511 b 561 1338 682 1404 634 1338 m 465 1251 l 670 1035 l 595 1035 l 465 1171 l 336 1035 l 261 1035 m 152 958 l 779 958 l 779 872 l 245 872 l 245 524 l 725 524 l 725 438 l 245 438 l 245 88 l 779 88 l 779 0 l 152 0 "},"Ë":{"ha":864,"x_min":0,"x_max":0,"o":"m 303 1238 l 380 1238 l 380 1099 l 303 1099 m 550 1238 l 626 1238 l 626 1099 l 550 1099 m 152 958 l 779 958 l 779 872 l 245 872 l 245 524 l 725 524 l 725 438 l 245 438 l 245 88 l 779 88 l 779 0 l 152 0 "},"Ė":{"ha":864,"x_min":0,"x_max":0,"o":"m 418 1238 l 512 1238 l 512 1099 l 418 1099 m 152 958 l 779 958 l 779 872 l 245 872 l 245 524 l 725 524 l 725 438 l 245 438 l 245 88 l 779 88 l 779 0 l 152 0 "},"È":{"ha":864,"x_min":0,"x_max":0,"o":"m 262 1238 l 358 1238 l 501 1044 l 430 1044 m 152 958 l 779 958 l 779 872 l 245 872 l 245 524 l 725 524 l 725 438 l 245 438 l 245 88 l 779 88 l 779 0 l 152 0 "},"Ē":{"ha":864,"x_min":0,"x_max":0,"o":"m 281 1163 l 652 1163 l 652 1107 l 281 1107 m 152 958 l 779 958 l 779 872 l 245 872 l 245 524 l 725 524 l 725 438 l 245 438 l 245 88 l 779 88 l 779 0 l 152 0 "},"Ę":{"ha":864,"x_min":0,"x_max":0,"o":"m 836 -229 b 690 -309 801 -280 756 -309 b 549 -180 606 -309 549 -260 b 696 0 549 -85 637 -18 l 152 0 l 152 958 l 779 958 l 779 872 l 245 872 l 245 524 l 725 524 l 725 438 l 245 438 l 245 88 l 779 88 l 779 0 b 606 -170 705 -20 606 -83 b 688 -252 606 -227 638 -252 b 789 -196 732 -252 762 -233 "},"Ẽ":{"ha":864,"x_min":0,"x_max":0,"o":"m 561 1058 b 372 1179 448 1058 447 1179 b 302 1070 329 1179 302 1139 l 248 1070 b 375 1236 248 1175 297 1237 b 562 1116 479 1237 485 1116 b 626 1231 599 1116 626 1160 l 682 1231 b 561 1058 682 1124 634 1058 m 152 958 l 779 958 l 779 872 l 245 872 l 245 524 l 725 524 l 725 438 l 245 438 l 245 88 l 779 88 l 779 0 l 152 0 "},"F":{"ha":854,"x_min":0,"x_max":0,"o":"m 152 958 l 800 958 l 800 872 l 245 872 l 245 524 l 732 524 l 732 438 l 245 438 l 245 0 l 152 0 "},"G":{"ha":1045,"x_min":0,"x_max":0,"o":"m 524 -10 b 90 481 238 -10 90 197 b 530 970 90 765 237 970 b 920 711 719 970 849 882 l 836 675 b 529 888 784 821 682 888 b 182 484 298 888 182 723 b 524 74 182 256 284 74 b 836 318 690 74 801 157 l 838 417 l 604 417 l 604 494 l 929 494 l 929 0 l 854 0 l 846 172 b 524 -10 784 56 674 -10 "},"Ğ":{"ha":1045,"x_min":0,"x_max":0,"o":"m 526 1059 b 319 1238 387 1059 319 1122 l 385 1238 b 526 1114 385 1156 439 1114 b 667 1238 615 1114 667 1157 l 732 1238 b 526 1059 732 1120 661 1059 m 524 -10 b 90 481 238 -10 90 197 b 530 970 90 765 237 970 b 920 711 719 970 849 882 l 836 675 b 529 888 784 821 682 888 b 182 484 298 888 182 723 b 524 74 182 256 284 74 b 836 318 690 74 801 157 l 838 417 l 604 417 l 604 494 l 929 494 l 929 0 l 854 0 l 846 172 b 524 -10 784 56 674 -10 "},"Ģ":{"ha":1045,"x_min":0,"x_max":0,"o":"m 524 -10 b 90 481 238 -10 90 197 b 530 970 90 765 237 970 b 920 711 719 970 849 882 l 836 675 b 529 888 784 821 682 888 b 182 484 298 888 182 723 b 524 74 182 256 284 74 b 836 318 690 74 801 157 l 838 417 l 604 417 l 604 494 l 929 494 l 929 0 l 854 0 l 846 172 b 524 -10 784 56 674 -10 m 495 -77 l 591 -77 l 429 -303 l 372 -303 "},"Ġ":{"ha":1045,"x_min":0,"x_max":0,"o":"m 479 1238 l 572 1238 l 572 1099 l 479 1099 m 524 -10 b 90 481 238 -10 90 197 b 530 970 90 765 237 970 b 920 711 719 970 849 882 l 836 675 b 529 888 784 821 682 888 b 182 484 298 888 182 723 b 524 74 182 256 284 74 b 836 318 690 74 801 157 l 838 417 l 604 417 l 604 494 l 929 494 l 929 0 l 854 0 l 846 172 b 524 -10 784 56 674 -10 "},"H":{"ha":993,"x_min":0,"x_max":0,"o":"m 152 958 l 245 958 l 245 525 l 748 525 l 748 958 l 841 958 l 841 0 l 748 0 l 748 439 l 245 439 l 245 0 l 152 0 "},"Ħ":{"ha":993,"x_min":0,"x_max":0,"o":"m 932 728 l 841 728 l 841 0 l 748 0 l 748 439 l 245 439 l 245 0 l 152 0 l 152 728 l 60 728 l 60 784 l 152 784 l 152 958 l 245 958 l 245 784 l 748 784 l 748 958 l 841 958 l 841 784 l 932 784 m 748 728 l 245 728 l 245 525 l 748 525 "},"I":{"ha":397,"x_min":0,"x_max":0,"o":"m 152 958 l 245 958 l 245 0 l 152 0 "},"Ĳ":{"ha":1192,"x_min":0,"x_max":0,"o":"m 152 958 l 245 958 l 245 0 l 152 0 m 756 -10 b 451 280 576 -10 463 113 l 543 290 b 756 77 551 164 626 77 b 965 348 907 77 965 170 l 965 872 l 575 872 l 575 958 l 1058 958 l 1058 349 b 756 -10 1058 128 966 -10 "},"Í":{"ha":397,"x_min":0,"x_max":0,"o":"m 302 1238 l 398 1238 l 222 1044 l 154 1044 m 152 958 l 245 958 l 245 0 l 152 0 "},"Ǐ":{"ha":397,"x_min":0,"x_max":0,"o":"m -7 1238 l 68 1238 l 197 1106 l 328 1238 l 403 1238 l 197 1029 m 152 958 l 245 958 l 245 0 l 152 0 "},"Î":{"ha":397,"x_min":0,"x_max":0,"o":"m 197 1251 l 402 1035 l 328 1035 l 197 1171 l 68 1035 l -7 1035 m 152 958 l 245 958 l 245 0 l 152 0 "},"Ï":{"ha":397,"x_min":0,"x_max":0,"o":"m 35 1238 l 112 1238 l 112 1099 l 35 1099 m 282 1238 l 358 1238 l 358 1099 l 282 1099 m 152 958 l 245 958 l 245 0 l 152 0 "},"İ":{"ha":397,"x_min":0,"x_max":0,"o":"m 151 1238 l 244 1238 l 244 1099 l 151 1099 m 152 958 l 245 958 l 245 0 l 152 0 "},"Ì":{"ha":397,"x_min":0,"x_max":0,"o":"m -6 1238 l 90 1238 l 233 1044 l 162 1044 m 152 958 l 245 958 l 245 0 l 152 0 "},"Ī":{"ha":397,"x_min":0,"x_max":0,"o":"m 13 1163 l 385 1163 l 385 1107 l 13 1107 m 152 958 l 245 958 l 245 0 l 152 0 "},"Į":{"ha":397,"x_min":0,"x_max":0,"o":"m 302 -229 b 157 -309 267 -280 222 -309 b 16 -180 72 -309 16 -260 b 163 0 16 -85 104 -18 l 152 0 l 152 958 l 245 958 l 245 0 b 72 -170 171 -20 72 -83 b 155 -252 72 -227 104 -252 b 255 -196 198 -252 229 -233 "},"Ĩ":{"ha":397,"x_min":0,"x_max":0,"o":"m 293 1058 b 104 1179 180 1058 179 1179 b 35 1070 61 1179 35 1139 l -20 1070 b 107 1236 -20 1175 29 1237 b 294 1116 212 1237 217 1116 b 358 1231 331 1116 358 1160 l 414 1231 b 293 1058 414 1124 366 1058 m 152 958 l 245 958 l 245 0 l 152 0 "},"J":{"ha":794,"x_min":0,"x_max":0,"o":"m 359 -10 b 54 280 178 -10 66 113 l 145 290 b 359 77 154 164 229 77 b 568 348 509 77 568 170 l 568 872 l 178 872 l 178 958 l 661 958 l 661 349 b 359 -10 661 128 569 -10 "},"K":{"ha":984,"x_min":0,"x_max":0,"o":"m 152 958 l 245 958 l 245 382 l 793 958 l 918 958 l 551 581 l 937 0 l 822 0 l 487 518 l 245 268 l 245 0 l 152 0 "},"Ķ":{"ha":984,"x_min":0,"x_max":0,"o":"m 152 958 l 245 958 l 245 382 l 793 958 l 918 958 l 551 581 l 937 0 l 822 0 l 487 518 l 245 268 l 245 0 l 152 0 m 442 -77 l 538 -77 l 376 -303 l 319 -303 "},"L":{"ha":728,"x_min":0,"x_max":0,"o":"m 152 958 l 245 958 l 245 88 l 684 88 l 684 0 l 152 0 "},"Ǉ":{"ha":1548,"x_min":0,"x_max":0,"o":"m 152 958 l 245 958 l 245 88 l 684 88 l 684 0 l 152 0 m 1113 -10 b 808 280 932 -10 820 113 l 899 290 b 1113 77 908 164 983 77 b 1322 348 1263 77 1322 170 l 1322 872 l 932 872 l 932 958 l 1415 958 l 1415 349 b 1113 -10 1415 128 1323 -10 "},"Ĺ":{"ha":728,"x_min":0,"x_max":0,"o":"m 320 1238 l 416 1238 l 241 1044 l 172 1044 m 152 958 l 245 958 l 245 88 l 684 88 l 684 0 l 152 0 "},"Ľ":{"ha":1143,"x_min":0,"x_max":0,"o":"m 152 958 l 245 958 l 245 88 l 684 88 l 684 0 l 152 0 m 937 958 l 1031 958 l 913 673 l 857 673 "},"Ļ":{"ha":728,"x_min":0,"x_max":0,"o":"m 152 958 l 245 958 l 245 88 l 684 88 l 684 0 l 152 0 m 377 -77 l 473 -77 l 311 -303 l 254 -303 "},"ǈ":{"ha":1067,"x_min":0,"x_max":0,"o":"m 152 958 l 245 958 l 245 88 l 684 88 l 684 0 l 152 0 m 852 958 l 947 958 l 947 819 l 852 819 m 766 -294 b 656 -272 732 -294 685 -283 l 680 -194 b 758 -212 707 -205 738 -212 b 854 -92 824 -212 854 -174 l 854 677 l 945 677 l 945 -85 b 766 -294 945 -212 888 -294 "},"Ł":{"ha":728,"x_min":0,"x_max":0,"o":"m 684 88 l 684 0 l 152 0 l 152 255 l 60 151 l 60 254 l 152 357 l 152 958 l 245 958 l 245 463 l 473 722 l 473 620 l 245 361 l 245 88 "},"M":{"ha":1205,"x_min":0,"x_max":0,"o":"m 1053 958 l 1053 0 l 963 0 l 963 836 l 648 79 l 557 79 l 241 838 l 241 0 l 152 0 l 152 958 l 281 958 l 603 182 l 924 958 "},"N":{"ha":968,"x_min":0,"x_max":0,"o":"m 817 958 l 817 0 l 718 0 l 241 811 l 241 0 l 152 0 l 152 958 l 250 958 l 727 150 l 727 958 "},"Ǌ":{"ha":1763,"x_min":0,"x_max":0,"o":"m 727 958 l 817 958 l 817 0 l 718 0 l 241 811 l 241 0 l 152 0 l 152 958 l 250 958 l 727 150 m 1629 958 l 1629 349 b 1327 -10 1629 128 1537 -10 b 1022 280 1147 -10 1034 113 l 1114 290 b 1327 77 1122 164 1197 77 b 1536 348 1478 77 1536 170 l 1536 872 l 1146 872 l 1146 958 "},"Ń":{"ha":968,"x_min":0,"x_max":0,"o":"m 509 1044 l 440 1044 l 588 1238 l 684 1238 m 817 958 l 817 0 l 718 0 l 241 811 l 241 0 l 152 0 l 152 958 l 250 958 l 727 150 l 727 958 "},"Ň":{"ha":968,"x_min":0,"x_max":0,"o":"m 484 1029 l 279 1238 l 355 1238 l 484 1106 l 614 1238 l 689 1238 m 817 958 l 817 0 l 718 0 l 241 811 l 241 0 l 152 0 l 152 958 l 250 958 l 727 150 l 727 958 "},"Ņ":{"ha":968,"x_min":0,"x_max":0,"o":"m 817 958 l 817 0 l 718 0 l 241 811 l 241 0 l 152 0 l 152 958 l 250 958 l 727 150 l 727 958 m 444 -77 l 539 -77 l 378 -303 l 320 -303 "},"Ŋ":{"ha":970,"x_min":0,"x_max":0,"o":"m 816 958 l 816 -20 b 625 -233 816 -139 768 -233 b 526 -219 598 -233 559 -228 l 529 -157 b 603 -170 553 -165 583 -170 b 734 -56 692 -170 734 -121 b 726 -16 734 -38 731 -26 l 241 814 l 241 0 l 152 0 l 152 958 l 250 958 l 727 146 l 727 958 "},"ǋ":{"ha":1304,"x_min":0,"x_max":0,"o":"m 727 958 l 817 958 l 817 0 l 718 0 l 241 811 l 241 0 l 152 0 l 152 958 l 250 958 l 727 150 m 1183 958 l 1183 819 l 1089 819 l 1089 958 m 1091 677 l 1181 677 l 1181 -85 b 1002 -294 1181 -212 1125 -294 b 892 -272 968 -294 922 -283 l 916 -194 b 994 -212 943 -205 975 -212 b 1091 -92 1061 -212 1091 -174 "},"Ñ":{"ha":968,"x_min":0,"x_max":0,"o":"m 390 1179 b 321 1070 347 1179 321 1139 l 267 1070 b 393 1236 267 1175 315 1237 b 580 1116 498 1237 503 1116 b 644 1231 617 1116 644 1160 l 701 1231 b 579 1058 701 1124 652 1058 b 390 1179 466 1058 465 1179 m 817 958 l 817 0 l 718 0 l 241 811 l 241 0 l 152 0 l 152 958 l 250 958 l 727 150 l 727 958 "},"O":{"ha":1057,"x_min":0,"x_max":0,"o":"m 528 -10 b 89 479 229 -10 89 218 b 528 968 89 741 229 968 b 968 479 828 968 968 741 b 528 -10 968 218 828 -10 m 528 73 b 870 479 768 73 870 260 b 528 886 870 699 768 886 b 186 479 289 886 186 699 b 528 73 186 260 289 73 "},"Ó":{"ha":1057,"x_min":0,"x_max":0,"o":"m 631 1238 l 728 1238 l 552 1044 l 484 1044 m 528 -10 b 89 479 229 -10 89 218 b 528 968 89 741 229 968 b 968 479 828 968 968 741 b 528 -10 968 218 828 -10 m 528 73 b 870 479 768 73 870 260 b 528 886 870 699 768 886 b 186 479 289 886 186 699 b 528 73 186 260 289 73 "},"Ǒ":{"ha":1057,"x_min":0,"x_max":0,"o":"m 323 1238 l 398 1238 l 527 1106 l 657 1238 l 732 1238 l 527 1029 m 528 -10 b 89 479 229 -10 89 218 b 528 968 89 741 229 968 b 968 479 828 968 968 741 b 528 -10 968 218 828 -10 m 528 73 b 870 479 768 73 870 260 b 528 886 870 699 768 886 b 186 479 289 886 186 699 b 528 73 186 260 289 73 "},"Ô":{"ha":1057,"x_min":0,"x_max":0,"o":"m 527 1251 l 732 1035 l 657 1035 l 527 1171 l 398 1035 l 323 1035 m 528 -10 b 89 479 229 -10 89 218 b 528 968 89 741 229 968 b 968 479 828 968 968 741 b 528 -10 968 218 828 -10 m 528 73 b 870 479 768 73 870 260 b 528 886 870 699 768 886 b 186 479 289 886 186 699 b 528 73 186 260 289 73 "},"Ố":{"ha":1057,"x_min":0,"x_max":0,"o":"m 631 1518 l 728 1518 l 552 1324 l 484 1324 m 527 1251 l 732 1035 l 657 1035 l 527 1171 l 398 1035 l 323 1035 m 528 -10 b 89 479 229 -10 89 218 b 528 968 89 741 229 968 b 968 479 828 968 968 741 b 528 -10 968 218 828 -10 m 528 73 b 870 479 768 73 870 260 b 528 886 870 699 768 886 b 186 479 289 886 186 699 b 528 73 186 260 289 73 "},"Ồ":{"ha":1057,"x_min":0,"x_max":0,"o":"m 323 1518 l 420 1518 l 563 1324 l 492 1324 m 527 1251 l 732 1035 l 657 1035 l 527 1171 l 398 1035 l 323 1035 m 528 -10 b 89 479 229 -10 89 218 b 528 968 89 741 229 968 b 968 479 828 968 968 741 b 528 -10 968 218 828 -10 m 528 73 b 870 479 768 73 870 260 b 528 886 870 699 768 886 b 186 479 289 886 186 699 b 528 73 186 260 289 73 "},"Ỗ":{"ha":1057,"x_min":0,"x_max":0,"o":"m 623 1338 b 433 1459 509 1338 509 1459 b 364 1350 391 1459 364 1419 l 310 1350 b 437 1516 310 1455 359 1517 b 623 1396 541 1517 547 1396 b 688 1511 661 1396 688 1440 l 744 1511 b 623 1338 744 1404 696 1338 m 527 1251 l 732 1035 l 657 1035 l 527 1171 l 398 1035 l 323 1035 m 528 -10 b 89 479 229 -10 89 218 b 528 968 89 741 229 968 b 968 479 828 968 968 741 b 528 -10 968 218 828 -10 m 528 73 b 870 479 768 73 870 260 b 528 886 870 699 768 886 b 186 479 289 886 186 699 b 528 73 186 260 289 73 "},"Ö":{"ha":1057,"x_min":0,"x_max":0,"o":"m 365 1238 l 441 1238 l 441 1099 l 365 1099 m 612 1238 l 688 1238 l 688 1099 l 612 1099 m 528 -10 b 89 479 229 -10 89 218 b 528 968 89 741 229 968 b 968 479 828 968 968 741 b 528 -10 968 218 828 -10 m 528 73 b 870 479 768 73 870 260 b 528 886 870 699 768 886 b 186 479 289 886 186 699 b 528 73 186 260 289 73 "},"Ò":{"ha":1057,"x_min":0,"x_max":0,"o":"m 323 1238 l 420 1238 l 563 1044 l 492 1044 m 528 -10 b 89 479 229 -10 89 218 b 528 968 89 741 229 968 b 968 479 828 968 968 741 b 528 -10 968 218 828 -10 m 528 73 b 870 479 768 73 870 260 b 528 886 870 699 768 886 b 186 479 289 886 186 699 b 528 73 186 260 289 73 "},"Ő":{"ha":1057,"x_min":0,"x_max":0,"o":"m 513 1238 l 595 1238 l 433 1031 l 365 1031 m 745 1238 l 841 1238 l 665 1031 l 597 1031 m 528 -10 b 89 479 229 -10 89 218 b 528 968 89 741 229 968 b 968 479 828 968 968 741 b 528 -10 968 218 828 -10 m 528 73 b 870 479 768 73 870 260 b 528 886 870 699 768 886 b 186 479 289 886 186 699 b 528 73 186 260 289 73 "},"Ō":{"ha":1057,"x_min":0,"x_max":0,"o":"m 342 1163 l 714 1163 l 714 1107 l 342 1107 m 528 -10 b 89 479 229 -10 89 218 b 528 968 89 741 229 968 b 968 479 828 968 968 741 b 528 -10 968 218 828 -10 m 528 73 b 870 479 768 73 870 260 b 528 886 870 699 768 886 b 186 479 289 886 186 699 b 528 73 186 260 289 73 "},"Ø":{"ha":1057,"x_min":0,"x_max":0,"o":"m 808 876 b 968 479 916 785 968 638 b 528 -10 968 218 828 -10 b 295 50 435 -10 357 12 l 264 0 l 194 0 l 247 85 b 89 479 140 176 89 321 b 528 968 89 741 229 968 b 760 909 620 968 697 947 l 790 958 l 859 958 l 808 876 m 186 479 b 295 162 186 353 220 237 l 713 836 b 528 886 665 867 603 886 b 186 479 289 886 186 699 m 528 73 b 870 479 768 73 870 260 b 760 798 870 607 836 723 l 341 124 b 528 73 391 92 452 73 "},"Ǿ":{"ha":1057,"x_min":0,"x_max":0,"o":"m 552 1044 l 484 1044 l 631 1238 l 728 1238 m 808 876 b 968 479 916 785 968 638 b 528 -10 968 218 828 -10 b 295 50 435 -10 357 12 l 264 0 l 194 0 l 247 85 b 89 479 140 176 89 321 b 528 968 89 741 229 968 b 760 909 620 968 697 947 l 790 958 l 859 958 l 808 876 m 186 479 b 295 162 186 353 220 237 l 713 836 b 528 886 665 867 603 886 b 186 479 289 886 186 699 m 528 73 b 870 479 768 73 870 260 b 760 798 870 607 836 723 l 341 124 b 528 73 391 92 452 73 "},"Õ":{"ha":1057,"x_min":0,"x_max":0,"o":"m 623 1058 b 433 1179 509 1058 509 1179 b 364 1070 391 1179 364 1139 l 310 1070 b 437 1236 310 1175 359 1237 b 623 1116 541 1237 547 1116 b 688 1231 661 1116 688 1160 l 744 1231 b 623 1058 744 1124 696 1058 m 528 -10 b 89 479 229 -10 89 218 b 528 968 89 741 229 968 b 968 479 828 968 968 741 b 528 -10 968 218 828 -10 m 528 73 b 870 479 768 73 870 260 b 528 886 870 699 768 886 b 186 479 289 886 186 699 b 528 73 186 260 289 73 "},"Œ":{"ha":1588,"x_min":0,"x_max":0,"o":"m 968 872 l 968 524 l 1449 524 l 1449 438 l 968 438 l 968 88 l 1502 88 l 1502 0 l 876 0 l 876 157 b 528 -10 804 56 689 -10 b 89 479 229 -10 89 218 b 528 968 89 741 229 968 b 876 802 689 968 804 903 l 876 958 l 1502 958 l 1502 872 m 528 73 b 870 479 768 73 870 260 b 528 886 870 699 768 886 b 186 479 289 886 186 699 b 528 73 186 260 289 73 "},"P":{"ha":802,"x_min":0,"x_max":0,"o":"m 152 958 l 415 958 b 737 687 608 958 737 859 b 415 419 737 515 610 419 l 244 419 l 244 0 l 152 0 m 415 507 b 645 687 568 507 645 571 b 415 871 645 803 566 871 l 244 871 l 244 507 "},"Þ":{"ha":796,"x_min":0,"x_max":0,"o":"m 152 958 l 237 958 l 237 820 l 431 820 b 730 555 623 820 730 718 b 412 283 730 376 606 283 l 237 283 l 237 0 l 152 0 m 412 362 b 645 552 566 362 645 429 b 412 746 645 674 563 746 l 237 746 l 237 362 "},"Q":{"ha":1078,"x_min":0,"x_max":0,"o":"m 795 78 b 527 -10 726 22 637 -10 b 88 479 229 -10 88 218 b 527 968 88 741 229 968 b 967 479 827 968 967 740 b 857 132 967 345 930 220 l 993 -1 l 932 -59 m 527 78 b 729 142 612 78 679 102 l 570 296 l 631 352 l 789 199 b 874 479 847 272 874 370 b 527 880 874 699 768 880 b 181 479 288 880 181 699 b 527 78 181 260 288 78 "},"R":{"ha":857,"x_min":0,"x_max":0,"o":"m 152 958 l 420 958 b 739 691 605 958 739 862 b 536 444 739 562 661 474 l 802 0 l 696 0 l 446 435 b 381 433 426 433 404 433 l 245 433 l 245 0 l 152 0 m 428 510 b 646 690 568 512 646 576 b 421 874 646 806 562 874 l 245 874 l 245 510 "},"Ŕ":{"ha":857,"x_min":0,"x_max":0,"o":"m 527 1238 l 623 1238 l 448 1044 l 379 1044 m 152 958 l 420 958 b 739 691 605 958 739 862 b 536 444 739 562 661 474 l 802 0 l 696 0 l 446 435 b 381 433 426 433 404 433 l 245 433 l 245 0 l 152 0 m 428 510 b 646 690 568 512 646 576 b 421 874 646 806 562 874 l 245 874 l 245 510 "},"Ř":{"ha":857,"x_min":0,"x_max":0,"o":"m 218 1238 l 294 1238 l 422 1106 l 553 1238 l 628 1238 l 422 1029 m 152 958 l 420 958 b 739 691 605 958 739 862 b 536 444 739 562 661 474 l 802 0 l 696 0 l 446 435 b 381 433 426 433 404 433 l 245 433 l 245 0 l 152 0 m 428 510 b 646 690 568 512 646 576 b 421 874 646 806 562 874 l 245 874 l 245 510 "},"Ŗ":{"ha":857,"x_min":0,"x_max":0,"o":"m 152 958 l 420 958 b 739 691 605 958 739 862 b 536 444 739 562 661 474 l 802 0 l 696 0 l 446 435 b 381 433 426 433 404 433 l 245 433 l 245 0 l 152 0 m 428 510 b 646 690 568 512 646 576 b 421 874 646 806 562 874 l 245 874 l 245 510 m 431 -77 l 527 -77 l 366 -303 l 308 -303 "},"S":{"ha":779,"x_min":0,"x_max":0,"o":"m 399 -9 b 64 254 233 -9 93 84 l 157 277 b 400 75 176 144 272 75 b 614 256 530 75 614 152 b 121 724 614 507 121 425 b 393 968 121 873 242 968 b 664 814 510 968 603 922 l 587 766 b 389 886 543 846 478 886 b 214 728 290 886 214 819 b 707 263 214 500 707 579 b 399 -9 707 99 572 -9 "},"Ś":{"ha":779,"x_min":0,"x_max":0,"o":"m 488 1238 l 585 1238 l 409 1044 l 340 1044 m 399 -9 b 64 254 233 -9 93 84 l 157 277 b 400 75 176 144 272 75 b 614 256 530 75 614 152 b 121 724 614 507 121 425 b 393 968 121 873 242 968 b 664 814 510 968 603 922 l 587 766 b 389 886 543 846 478 886 b 214 728 290 886 214 819 b 707 263 214 500 707 579 b 399 -9 707 99 572 -9 "},"Š":{"ha":779,"x_min":0,"x_max":0,"o":"m 180 1238 l 255 1238 l 384 1106 l 514 1238 l 589 1238 l 384 1029 m 399 -9 b 64 254 233 -9 93 84 l 157 277 b 400 75 176 144 272 75 b 614 256 530 75 614 152 b 121 724 614 507 121 425 b 393 968 121 873 242 968 b 664 814 510 968 603 922 l 587 766 b 389 886 543 846 478 886 b 214 728 290 886 214 819 b 707 263 214 500 707 579 b 399 -9 707 99 572 -9 "},"Ş":{"ha":779,"x_min":0,"x_max":0,"o":"m 707 263 b 408 -9 707 102 577 -5 l 357 -90 b 401 -96 374 -91 388 -93 b 519 -216 478 -111 519 -153 b 378 -350 519 -296 463 -350 b 248 -262 322 -350 269 -314 l 300 -240 b 380 -296 312 -273 345 -296 b 464 -220 433 -296 464 -267 b 340 -131 464 -170 418 -136 b 281 -129 323 -130 304 -129 l 353 -6 b 64 254 208 9 90 100 l 157 277 b 400 75 176 144 272 75 b 614 256 530 75 614 152 b 121 724 614 507 121 425 b 393 968 121 873 242 968 b 664 814 510 968 603 922 l 587 766 b 389 886 543 846 478 886 b 214 728 290 886 214 819 b 707 263 214 500 707 579 "},"Ș":{"ha":779,"x_min":0,"x_max":0,"o":"m 399 -9 b 64 254 233 -9 93 84 l 157 277 b 400 75 176 144 272 75 b 614 256 530 75 614 152 b 121 724 614 507 121 425 b 393 968 121 873 242 968 b 664 814 510 968 603 922 l 587 766 b 389 886 543 846 478 886 b 214 728 290 886 214 819 b 707 263 214 500 707 579 b 399 -9 707 99 572 -9 m 344 -77 l 439 -77 l 278 -303 l 220 -303 "},"T":{"ha":849,"x_min":0,"x_max":0,"o":"m 378 874 l 44 874 l 44 958 l 806 958 l 806 874 l 471 874 l 471 0 l 378 0 "},"Ŧ":{"ha":849,"x_min":0,"x_max":0,"o":"m 471 874 l 471 511 l 642 511 l 642 448 l 471 448 l 471 0 l 378 0 l 378 448 l 212 448 l 212 511 l 378 511 l 378 874 l 44 874 l 44 958 l 806 958 l 806 874 "},"Ť":{"ha":849,"x_min":0,"x_max":0,"o":"m 222 1238 l 297 1238 l 426 1106 l 556 1238 l 631 1238 l 426 1029 m 378 874 l 44 874 l 44 958 l 806 958 l 806 874 l 471 874 l 471 0 l 378 0 "},"Ţ":{"ha":849,"x_min":0,"x_max":0,"o":"m 378 874 l 44 874 l 44 958 l 806 958 l 806 874 l 471 874 l 471 0 l 378 0 m 420 -350 b 290 -262 364 -350 311 -314 l 342 -240 b 422 -296 354 -273 387 -296 b 506 -220 475 -296 506 -267 b 382 -131 506 -170 460 -136 b 323 -129 366 -130 347 -129 l 399 -1 l 455 -1 l 399 -90 b 443 -96 416 -91 430 -93 b 562 -216 520 -111 562 -153 b 420 -350 562 -296 505 -350 "},"Ț":{"ha":849,"x_min":0,"x_max":0,"o":"m 378 874 l 44 874 l 44 958 l 806 958 l 806 874 l 471 874 l 471 0 l 378 0 m 386 -77 l 481 -77 l 320 -303 l 262 -303 "},"U":{"ha":950,"x_min":0,"x_max":0,"o":"m 474 -10 b 132 359 243 -10 132 129 l 132 958 l 225 958 l 225 370 b 474 80 225 183 299 80 b 725 373 650 80 725 184 l 725 958 l 818 958 l 818 367 b 474 -10 818 131 705 -10 "},"Ú":{"ha":950,"x_min":0,"x_max":0,"o":"m 578 1238 l 675 1238 l 499 1044 l 431 1044 m 474 -10 b 132 359 243 -10 132 129 l 132 958 l 225 958 l 225 370 b 474 80 225 183 299 80 b 725 373 650 80 725 184 l 725 958 l 818 958 l 818 367 b 474 -10 818 131 705 -10 "},"Ǔ":{"ha":950,"x_min":0,"x_max":0,"o":"m 270 1238 l 345 1238 l 474 1106 l 604 1238 l 680 1238 l 474 1029 m 474 -10 b 132 359 243 -10 132 129 l 132 958 l 225 958 l 225 370 b 474 80 225 183 299 80 b 725 373 650 80 725 184 l 725 958 l 818 958 l 818 367 b 474 -10 818 131 705 -10 "},"Û":{"ha":950,"x_min":0,"x_max":0,"o":"m 474 1251 l 679 1035 l 604 1035 l 474 1171 l 345 1035 l 270 1035 m 474 -10 b 132 359 243 -10 132 129 l 132 958 l 225 958 l 225 370 b 474 80 225 183 299 80 b 725 373 650 80 725 184 l 725 958 l 818 958 l 818 367 b 474 -10 818 131 705 -10 "},"Ü":{"ha":950,"x_min":0,"x_max":0,"o":"m 312 1238 l 389 1238 l 389 1099 l 312 1099 m 559 1238 l 635 1238 l 635 1099 l 559 1099 m 474 -10 b 132 359 243 -10 132 129 l 132 958 l 225 958 l 225 370 b 474 80 225 183 299 80 b 725 373 650 80 725 184 l 725 958 l 818 958 l 818 367 b 474 -10 818 131 705 -10 "},"Ǘ":{"ha":950,"x_min":0,"x_max":0,"o":"m 578 1519 l 675 1519 l 499 1325 l 431 1325 m 312 1238 l 389 1238 l 389 1099 l 312 1099 m 559 1238 l 635 1238 l 635 1099 l 559 1099 m 474 -10 b 132 359 243 -10 132 129 l 132 958 l 225 958 l 225 370 b 474 80 225 183 299 80 b 725 373 650 80 725 184 l 725 958 l 818 958 l 818 367 b 474 -10 818 131 705 -10 "},"Ǚ":{"ha":950,"x_min":0,"x_max":0,"o":"m 270 1519 l 345 1519 l 474 1387 l 604 1519 l 680 1519 l 474 1310 m 312 1238 l 389 1238 l 389 1099 l 312 1099 m 559 1238 l 635 1238 l 635 1099 l 559 1099 m 474 -10 b 132 359 243 -10 132 129 l 132 958 l 225 958 l 225 370 b 474 80 225 183 299 80 b 725 373 650 80 725 184 l 725 958 l 818 958 l 818 367 b 474 -10 818 131 705 -10 "},"Ǜ":{"ha":950,"x_min":0,"x_max":0,"o":"m 271 1519 l 367 1519 l 510 1325 l 439 1325 m 312 1238 l 389 1238 l 389 1099 l 312 1099 m 559 1238 l 635 1238 l 635 1099 l 559 1099 m 474 -10 b 132 359 243 -10 132 129 l 132 958 l 225 958 l 225 370 b 474 80 225 183 299 80 b 725 373 650 80 725 184 l 725 958 l 818 958 l 818 367 b 474 -10 818 131 705 -10 "},"Ǖ":{"ha":950,"x_min":0,"x_max":0,"o":"m 290 1444 l 661 1444 l 661 1388 l 290 1388 m 312 1238 l 389 1238 l 389 1099 l 312 1099 m 559 1238 l 635 1238 l 635 1099 l 559 1099 m 474 -10 b 132 359 243 -10 132 129 l 132 958 l 225 958 l 225 370 b 474 80 225 183 299 80 b 725 373 650 80 725 184 l 725 958 l 818 958 l 818 367 b 474 -10 818 131 705 -10 "},"Ù":{"ha":950,"x_min":0,"x_max":0,"o":"m 271 1238 l 367 1238 l 510 1044 l 439 1044 m 474 -10 b 132 359 243 -10 132 129 l 132 958 l 225 958 l 225 370 b 474 80 225 183 299 80 b 725 373 650 80 725 184 l 725 958 l 818 958 l 818 367 b 474 -10 818 131 705 -10 "},"Ű":{"ha":950,"x_min":0,"x_max":0,"o":"m 460 1238 l 543 1238 l 380 1031 l 312 1031 m 692 1238 l 788 1238 l 612 1031 l 544 1031 m 474 -10 b 132 359 243 -10 132 129 l 132 958 l 225 958 l 225 370 b 474 80 225 183 299 80 b 725 373 650 80 725 184 l 725 958 l 818 958 l 818 367 b 474 -10 818 131 705 -10 "},"Ū":{"ha":950,"x_min":0,"x_max":0,"o":"m 290 1163 l 661 1163 l 661 1107 l 290 1107 m 474 -10 b 132 359 243 -10 132 129 l 132 958 l 225 958 l 225 370 b 474 80 225 183 299 80 b 725 373 650 80 725 184 l 725 958 l 818 958 l 818 367 b 474 -10 818 131 705 -10 "},"Ų":{"ha":950,"x_min":0,"x_max":0,"o":"m 818 958 l 818 367 b 583 2 818 172 741 41 b 471 -143 525 -28 471 -79 b 553 -225 471 -201 503 -225 b 654 -170 597 -225 627 -207 l 701 -202 b 555 -283 666 -254 621 -283 b 414 -154 471 -283 414 -233 b 494 -9 414 -92 452 -42 b 474 -10 488 -10 481 -10 b 132 359 243 -10 132 129 l 132 958 l 225 958 l 225 370 b 474 80 225 183 299 80 b 725 373 650 80 725 184 l 725 958 "},"Ů":{"ha":950,"x_min":0,"x_max":0,"o":"m 473 1023 b 342 1154 399 1023 342 1082 b 473 1286 342 1227 400 1286 b 605 1154 545 1286 605 1227 b 473 1023 605 1081 547 1023 m 473 1074 b 553 1155 519 1074 553 1109 b 473 1234 553 1200 520 1234 b 393 1155 427 1234 393 1200 b 473 1074 393 1109 428 1074 m 474 -10 b 132 359 243 -10 132 129 l 132 958 l 225 958 l 225 370 b 474 80 225 183 299 80 b 725 373 650 80 725 184 l 725 958 l 818 958 l 818 367 b 474 -10 818 131 705 -10 "},"Ũ":{"ha":950,"x_min":0,"x_max":0,"o":"m 570 1058 b 380 1179 456 1058 456 1179 b 311 1070 338 1179 311 1139 l 257 1070 b 384 1236 257 1175 306 1237 b 570 1116 488 1237 494 1116 b 635 1231 608 1116 635 1160 l 691 1231 b 570 1058 691 1124 643 1058 m 474 -10 b 132 359 243 -10 132 129 l 132 958 l 225 958 l 225 370 b 474 80 225 183 299 80 b 725 373 650 80 725 184 l 725 958 l 818 958 l 818 367 b 474 -10 818 131 705 -10 "},"V":{"ha":924,"x_min":0,"x_max":0,"o":"m 879 958 l 500 0 l 425 0 l 45 958 l 148 958 l 463 142 l 777 958 "},"W":{"ha":1342,"x_min":0,"x_max":0,"o":"m 54 958 l 151 958 l 383 133 l 633 907 l 709 907 l 959 133 l 1192 958 l 1289 958 l 1013 0 l 918 0 l 671 760 l 425 0 l 330 0 "},"Ẃ":{"ha":1342,"x_min":0,"x_max":0,"o":"m 778 1228 l 874 1228 l 699 1034 l 630 1034 m 54 958 l 151 958 l 383 133 l 633 907 l 709 907 l 959 133 l 1192 958 l 1289 958 l 1013 0 l 918 0 l 671 760 l 425 0 l 330 0 "},"Ŵ":{"ha":1342,"x_min":0,"x_max":0,"o":"m 673 1241 l 878 1025 l 804 1025 l 673 1161 l 545 1025 l 469 1025 m 54 958 l 151 958 l 383 133 l 633 907 l 709 907 l 959 133 l 1192 958 l 1289 958 l 1013 0 l 918 0 l 671 760 l 425 0 l 330 0 "},"Ẅ":{"ha":1342,"x_min":0,"x_max":0,"o":"m 511 1228 l 588 1228 l 588 1089 l 511 1089 m 758 1228 l 834 1228 l 834 1089 l 758 1089 m 54 958 l 151 958 l 383 133 l 633 907 l 709 907 l 959 133 l 1192 958 l 1289 958 l 1013 0 l 918 0 l 671 760 l 425 0 l 330 0 "},"Ẁ":{"ha":1342,"x_min":0,"x_max":0,"o":"m 470 1228 l 566 1228 l 709 1034 l 638 1034 m 54 958 l 151 958 l 383 133 l 633 907 l 709 907 l 959 133 l 1192 958 l 1289 958 l 1013 0 l 918 0 l 671 760 l 425 0 l 330 0 "},"X":{"ha":899,"x_min":0,"x_max":0,"o":"m 386 484 l 58 958 l 169 958 l 450 544 l 730 958 l 841 958 l 513 484 l 847 0 l 736 0 l 449 419 l 163 0 l 52 0 "},"Y":{"ha":901,"x_min":0,"x_max":0,"o":"m 402 366 l 37 958 l 150 958 l 450 457 l 750 958 l 863 958 l 498 366 l 498 0 l 402 0 "},"Ý":{"ha":901,"x_min":0,"x_max":0,"o":"m 553 1239 l 650 1239 l 474 1045 l 406 1045 m 402 366 l 37 958 l 150 958 l 450 457 l 750 958 l 863 958 l 498 366 l 498 0 l 402 0 "},"Ŷ":{"ha":901,"x_min":0,"x_max":0,"o":"m 449 1252 l 654 1036 l 579 1036 l 449 1172 l 320 1036 l 245 1036 m 402 366 l 37 958 l 150 958 l 450 457 l 750 958 l 863 958 l 498 366 l 498 0 l 402 0 "},"Ÿ":{"ha":901,"x_min":0,"x_max":0,"o":"m 287 1239 l 363 1239 l 363 1100 l 287 1100 m 534 1239 l 610 1239 l 610 1100 l 534 1100 m 402 366 l 37 958 l 150 958 l 450 457 l 750 958 l 863 958 l 498 366 l 498 0 l 402 0 "},"Ỳ":{"ha":901,"x_min":0,"x_max":0,"o":"m 245 1239 l 342 1239 l 485 1045 l 414 1045 m 402 366 l 37 958 l 150 958 l 450 457 l 750 958 l 863 958 l 498 366 l 498 0 l 402 0 "},"Ỹ":{"ha":901,"x_min":0,"x_max":0,"o":"m 545 1059 b 355 1179 431 1059 431 1180 b 286 1071 313 1180 286 1139 l 232 1071 b 359 1237 232 1176 281 1238 b 545 1117 463 1238 469 1117 b 610 1232 583 1117 610 1161 l 666 1232 b 545 1059 666 1124 618 1059 m 402 366 l 37 958 l 150 958 l 450 457 l 750 958 l 863 958 l 498 366 l 498 0 l 402 0 "},"Z":{"ha":886,"x_min":0,"x_max":0,"o":"m 817 886 l 188 85 l 814 85 l 814 0 l 62 0 l 62 71 l 692 872 l 94 872 l 94 958 l 817 958 "},"Ź":{"ha":886,"x_min":0,"x_max":0,"o":"m 467 1044 l 398 1044 l 546 1238 l 642 1238 m 817 886 l 188 85 l 814 85 l 814 0 l 62 0 l 62 71 l 692 872 l 94 872 l 94 958 l 817 958 "},"Ž":{"ha":886,"x_min":0,"x_max":0,"o":"m 441 1029 l 237 1238 l 313 1238 l 441 1106 l 572 1238 l 647 1238 m 817 886 l 188 85 l 814 85 l 814 0 l 62 0 l 62 71 l 692 872 l 94 872 l 94 958 l 817 958 "},"Ż":{"ha":886,"x_min":0,"x_max":0,"o":"m 488 1099 l 395 1099 l 395 1238 l 488 1238 m 817 886 l 188 85 l 814 85 l 814 0 l 62 0 l 62 71 l 692 872 l 94 872 l 94 958 l 817 958 "},"a":{"ha":723,"x_min":0,"x_max":0,"o":"m 350 688 b 620 414 524 688 620 584 l 620 0 l 545 0 l 539 138 b 293 -10 488 39 394 -10 b 59 197 155 -10 59 66 b 343 390 59 334 168 390 l 538 390 l 538 398 b 351 609 538 541 486 609 b 154 498 260 609 201 568 l 85 549 b 350 688 151 640 230 688 m 310 66 b 538 254 428 66 507 143 l 538 323 l 348 323 b 151 194 214 323 151 275 b 310 66 151 117 208 66 "},"á":{"ha":723,"x_min":0,"x_max":0,"o":"m 374 764 l 306 764 l 454 958 l 550 958 m 350 688 b 620 414 524 688 620 584 l 620 0 l 545 0 l 539 138 b 293 -10 488 39 394 -10 b 59 197 155 -10 59 66 b 343 390 59 334 168 390 l 538 390 l 538 398 b 351 609 538 541 486 609 b 154 498 260 609 201 568 l 85 549 b 350 688 151 640 230 688 m 310 66 b 538 254 428 66 507 143 l 538 323 l 348 323 b 151 194 214 323 151 275 b 310 66 151 117 208 66 "},"ă":{"ha":723,"x_min":0,"x_max":0,"o":"m 350 779 b 143 958 211 779 143 842 l 208 958 b 350 834 208 876 262 834 b 491 958 439 834 491 877 l 556 958 b 350 779 556 840 485 779 m 350 688 b 620 414 524 688 620 584 l 620 0 l 545 0 l 539 138 b 293 -10 488 39 394 -10 b 59 197 155 -10 59 66 b 343 390 59 334 168 390 l 538 390 l 538 398 b 351 609 538 541 486 609 b 154 498 260 609 201 568 l 85 549 b 350 688 151 640 230 688 m 310 66 b 538 254 428 66 507 143 l 538 323 l 348 323 b 151 194 214 323 151 275 b 310 66 151 117 208 66 "},"ắ":{"ha":723,"x_min":0,"x_max":0,"o":"m 374 1045 l 306 1045 l 454 1239 l 550 1239 m 350 779 b 143 958 211 779 143 842 l 208 958 b 350 834 208 876 262 834 b 491 958 439 834 491 877 l 556 958 b 350 779 556 840 485 779 m 350 688 b 620 414 524 688 620 584 l 620 0 l 545 0 l 539 138 b 293 -10 488 39 394 -10 b 59 197 155 -10 59 66 b 343 390 59 334 168 390 l 538 390 l 538 398 b 351 609 538 541 486 609 b 154 498 260 609 201 568 l 85 549 b 350 688 151 640 230 688 m 310 66 b 538 254 428 66 507 143 l 538 323 l 348 323 b 151 194 214 323 151 275 b 310 66 151 117 208 66 "},"ằ":{"ha":723,"x_min":0,"x_max":0,"o":"m 314 1045 l 146 1239 l 242 1239 l 385 1045 m 350 779 b 143 958 211 779 143 842 l 208 958 b 350 834 208 876 262 834 b 491 958 439 834 491 877 l 556 958 b 350 779 556 840 485 779 m 350 688 b 620 414 524 688 620 584 l 620 0 l 545 0 l 539 138 b 293 -10 488 39 394 -10 b 59 197 155 -10 59 66 b 343 390 59 334 168 390 l 538 390 l 538 398 b 351 609 538 541 486 609 b 154 498 260 609 201 568 l 85 549 b 350 688 151 640 230 688 m 310 66 b 538 254 428 66 507 143 l 538 323 l 348 323 b 151 194 214 323 151 275 b 310 66 151 117 208 66 "},"ẵ":{"ha":723,"x_min":0,"x_max":0,"o":"m 256 1179 b 186 1071 213 1180 186 1139 l 132 1071 b 259 1237 132 1176 181 1238 b 446 1117 363 1238 369 1117 b 510 1232 483 1117 510 1161 l 566 1232 b 445 1059 566 1124 518 1059 b 256 1179 332 1059 331 1180 m 350 834 b 491 958 439 834 491 877 l 556 958 b 350 779 556 840 485 779 b 143 958 211 779 143 842 l 208 958 b 350 834 208 876 262 834 m 350 688 b 620 414 524 688 620 584 l 620 0 l 545 0 l 539 138 b 293 -10 488 39 394 -10 b 59 197 155 -10 59 66 b 343 390 59 334 168 390 l 538 390 l 538 398 b 351 609 538 541 486 609 b 154 498 260 609 201 568 l 85 549 b 350 688 151 640 230 688 m 310 66 b 538 254 428 66 507 143 l 538 323 l 348 323 b 151 194 214 323 151 275 b 310 66 151 117 208 66 "},"ǎ":{"ha":723,"x_min":0,"x_max":0,"o":"m 349 749 l 145 958 l 220 958 l 349 826 l 479 958 l 555 958 m 350 688 b 620 414 524 688 620 584 l 620 0 l 545 0 l 539 138 b 293 -10 488 39 394 -10 b 59 197 155 -10 59 66 b 343 390 59 334 168 390 l 538 390 l 538 398 b 351 609 538 541 486 609 b 154 498 260 609 201 568 l 85 549 b 350 688 151 640 230 688 m 310 66 b 538 254 428 66 507 143 l 538 323 l 348 323 b 151 194 214 323 151 275 b 310 66 151 117 208 66 "},"â":{"ha":723,"x_min":0,"x_max":0,"o":"m 220 755 l 145 755 l 349 971 l 554 755 l 479 755 l 349 891 m 350 688 b 620 414 524 688 620 584 l 620 0 l 545 0 l 539 138 b 293 -10 488 39 394 -10 b 59 197 155 -10 59 66 b 343 390 59 334 168 390 l 538 390 l 538 398 b 351 609 538 541 486 609 b 154 498 260 609 201 568 l 85 549 b 350 688 151 640 230 688 m 310 66 b 538 254 428 66 507 143 l 538 323 l 348 323 b 151 194 214 323 151 275 b 310 66 151 117 208 66 "},"ấ":{"ha":723,"x_min":0,"x_max":0,"o":"m 374 1044 l 306 1044 l 454 1238 l 550 1238 m 220 755 l 145 755 l 349 971 l 554 755 l 479 755 l 349 891 m 350 688 b 620 414 524 688 620 584 l 620 0 l 545 0 l 539 138 b 293 -10 488 39 394 -10 b 59 197 155 -10 59 66 b 343 390 59 334 168 390 l 538 390 l 538 398 b 351 609 538 541 486 609 b 154 498 260 609 201 568 l 85 549 b 350 688 151 640 230 688 m 310 66 b 538 254 428 66 507 143 l 538 323 l 348 323 b 151 194 214 323 151 275 b 310 66 151 117 208 66 "},"ầ":{"ha":723,"x_min":0,"x_max":0,"o":"m 314 1044 l 146 1238 l 242 1238 l 385 1044 m 220 755 l 145 755 l 349 971 l 554 755 l 479 755 l 349 891 m 350 688 b 620 414 524 688 620 584 l 620 0 l 545 0 l 539 138 b 293 -10 488 39 394 -10 b 59 197 155 -10 59 66 b 343 390 59 334 168 390 l 538 390 l 538 398 b 351 609 538 541 486 609 b 154 498 260 609 201 568 l 85 549 b 350 688 151 640 230 688 m 310 66 b 538 254 428 66 507 143 l 538 323 l 348 323 b 151 194 214 323 151 275 b 310 66 151 117 208 66 "},"ẫ":{"ha":723,"x_min":0,"x_max":0,"o":"m 256 1179 b 186 1070 213 1179 186 1139 l 132 1070 b 259 1236 132 1175 181 1237 b 446 1116 363 1237 369 1116 b 510 1231 483 1116 510 1160 l 566 1231 b 445 1058 566 1124 518 1058 b 256 1179 332 1058 331 1179 m 349 971 l 554 755 l 479 755 l 349 891 l 220 755 l 145 755 m 350 688 b 620 414 524 688 620 584 l 620 0 l 545 0 l 539 138 b 293 -10 488 39 394 -10 b 59 197 155 -10 59 66 b 343 390 59 334 168 390 l 538 390 l 538 398 b 351 609 538 541 486 609 b 154 498 260 609 201 568 l 85 549 b 350 688 151 640 230 688 m 310 66 b 538 254 428 66 507 143 l 538 323 l 348 323 b 151 194 214 323 151 275 b 310 66 151 117 208 66 "},"ä":{"ha":723,"x_min":0,"x_max":0,"o":"m 264 819 l 187 819 l 187 958 l 264 958 m 510 819 l 434 819 l 434 958 l 510 958 m 350 688 b 620 414 524 688 620 584 l 620 0 l 545 0 l 539 138 b 293 -10 488 39 394 -10 b 59 197 155 -10 59 66 b 343 390 59 334 168 390 l 538 390 l 538 398 b 351 609 538 541 486 609 b 154 498 260 609 201 568 l 85 549 b 350 688 151 640 230 688 m 310 66 b 538 254 428 66 507 143 l 538 323 l 348 323 b 151 194 214 323 151 275 b 310 66 151 117 208 66 "},"à":{"ha":723,"x_min":0,"x_max":0,"o":"m 314 764 l 146 958 l 242 958 l 385 764 m 350 688 b 620 414 524 688 620 584 l 620 0 l 545 0 l 539 138 b 293 -10 488 39 394 -10 b 59 197 155 -10 59 66 b 343 390 59 334 168 390 l 538 390 l 538 398 b 351 609 538 541 486 609 b 154 498 260 609 201 568 l 85 549 b 350 688 151 640 230 688 m 310 66 b 538 254 428 66 507 143 l 538 323 l 348 323 b 151 194 214 323 151 275 b 310 66 151 117 208 66 "},"ā":{"ha":723,"x_min":0,"x_max":0,"o":"m 536 827 l 165 827 l 165 883 l 536 883 m 350 688 b 620 414 524 688 620 584 l 620 0 l 545 0 l 539 138 b 293 -10 488 39 394 -10 b 59 197 155 -10 59 66 b 343 390 59 334 168 390 l 538 390 l 538 398 b 351 609 538 541 486 609 b 154 498 260 609 201 568 l 85 549 b 350 688 151 640 230 688 m 310 66 b 538 254 428 66 507 143 l 538 323 l 348 323 b 151 194 214 323 151 275 b 310 66 151 117 208 66 "},"ą":{"ha":723,"x_min":0,"x_max":0,"o":"m 677 -229 b 532 -309 642 -280 597 -309 b 391 -180 447 -309 391 -260 b 545 2 391 -81 486 -13 l 539 138 b 293 -10 488 39 394 -10 b 59 197 155 -10 59 66 b 343 390 59 334 168 390 l 538 390 l 538 398 b 351 609 538 541 486 609 b 154 498 260 609 201 568 l 85 549 b 350 688 151 640 230 688 b 620 414 524 688 620 584 l 620 0 b 447 -170 546 -20 447 -83 b 530 -252 447 -227 479 -252 b 630 -196 573 -252 604 -233 m 310 66 b 538 254 428 66 507 143 l 538 323 l 348 323 b 151 194 214 323 151 275 b 310 66 151 117 208 66 "},"å":{"ha":723,"x_min":0,"x_max":0,"o":"m 348 743 b 217 874 275 743 217 802 b 348 1006 217 947 275 1006 b 480 874 420 1006 480 947 b 348 743 480 801 422 743 m 348 954 b 269 875 302 954 269 920 b 348 793 269 829 303 793 b 429 875 394 793 429 829 b 348 954 429 920 395 954 m 350 688 b 620 414 524 688 620 584 l 620 0 l 545 0 l 539 138 b 293 -10 488 39 394 -10 b 59 197 155 -10 59 66 b 343 390 59 334 168 390 l 538 390 l 538 398 b 351 609 538 541 486 609 b 154 498 260 609 201 568 l 85 549 b 350 688 151 640 230 688 m 310 66 b 538 254 428 66 507 143 l 538 323 l 348 323 b 151 194 214 323 151 275 b 310 66 151 117 208 66 "},"ã":{"ha":723,"x_min":0,"x_max":0,"o":"m 256 899 b 186 790 213 899 186 859 l 132 790 b 259 956 132 895 181 957 b 446 836 363 957 369 836 b 510 951 483 836 510 880 l 566 951 b 445 778 566 844 518 778 b 256 899 332 778 331 899 m 350 688 b 620 414 524 688 620 584 l 620 0 l 545 0 l 539 138 b 293 -10 488 39 394 -10 b 59 197 155 -10 59 66 b 343 390 59 334 168 390 l 538 390 l 538 398 b 351 609 538 541 486 609 b 154 498 260 609 201 568 l 85 549 b 350 688 151 640 230 688 m 310 66 b 538 254 428 66 507 143 l 538 323 l 348 323 b 151 194 214 323 151 275 b 310 66 151 117 208 66 "},"ɐ":{"ha":723,"x_min":0,"x_max":0,"o":"m 372 68 b 569 179 463 68 522 109 l 637 129 b 373 -11 572 38 493 -11 b 103 264 199 -11 103 94 l 103 677 l 178 677 l 184 540 b 430 688 235 638 329 688 b 664 481 568 688 664 611 b 380 288 664 343 555 288 l 184 288 l 184 279 b 372 68 184 136 237 68 m 413 611 b 184 423 295 611 216 534 l 184 354 l 375 354 b 572 484 509 354 572 402 b 413 611 572 561 515 611 "},"æ":{"ha":1180,"x_min":0,"x_max":0,"o":"m 287 -10 b 56 192 155 -10 56 67 b 340 381 56 332 165 381 l 534 381 b 531 433 534 400 533 416 b 345 610 524 553 463 610 b 148 504 258 610 195 571 l 84 551 b 347 687 151 644 231 687 b 585 511 475 687 557 625 b 827 686 628 616 711 686 b 1117 368 1046 686 1117 514 b 1111 315 1117 349 1112 320 l 620 315 b 831 73 625 166 699 73 b 1033 157 918 73 972 95 l 1096 102 b 832 -7 1016 22 940 -7 b 574 156 705 -7 615 55 b 287 -10 515 55 431 -10 m 1027 381 b 1025 427 1028 397 1027 412 b 820 609 1017 514 958 609 b 619 381 699 609 624 510 m 300 58 b 546 221 414 58 490 115 b 534 315 539 250 536 282 l 345 315 b 140 193 210 315 140 277 b 300 58 140 111 202 58 "},"b":{"ha":813,"x_min":0,"x_max":0,"o":"m 458 -10 b 215 150 351 -10 258 50 l 215 0 l 123 0 l 123 958 l 215 958 l 215 528 b 457 688 258 628 349 688 b 745 340 640 688 745 532 b 458 -10 745 147 640 -10 m 437 73 b 655 340 579 73 655 189 b 437 606 655 490 579 606 b 208 340 296 606 208 491 b 437 73 208 187 296 73 "},"c":{"ha":689,"x_min":0,"x_max":0,"o":"m 371 -10 b 66 338 176 -10 66 146 b 370 688 66 515 166 688 b 642 502 493 688 592 624 l 557 469 b 370 606 525 553 456 606 b 157 338 224 606 157 475 b 370 71 157 198 224 71 b 553 208 458 71 526 123 l 635 176 b 371 -10 594 58 496 -10 "},"ć":{"ha":689,"x_min":0,"x_max":0,"o":"m 474 958 l 570 958 l 395 764 l 326 764 m 371 -10 b 66 338 176 -10 66 146 b 370 688 66 515 166 688 b 642 502 493 688 592 624 l 557 469 b 370 606 525 553 456 606 b 157 338 224 606 157 475 b 370 71 157 198 224 71 b 553 208 458 71 526 123 l 635 176 b 371 -10 594 58 496 -10 "},"č":{"ha":689,"x_min":0,"x_max":0,"o":"m 165 958 l 241 958 l 370 826 l 500 958 l 575 958 l 370 749 m 371 -10 b 66 338 176 -10 66 146 b 370 688 66 515 166 688 b 642 502 493 688 592 624 l 557 469 b 370 606 525 553 456 606 b 157 338 224 606 157 475 b 370 71 157 198 224 71 b 553 208 458 71 526 123 l 635 176 b 371 -10 594 58 496 -10 "},"ç":{"ha":689,"x_min":0,"x_max":0,"o":"m 370 71 b 553 208 458 71 526 123 l 635 176 b 393 -9 597 66 507 -1 l 343 -90 b 387 -96 359 -91 374 -93 b 505 -216 464 -111 505 -153 b 364 -350 505 -296 449 -350 b 233 -262 308 -350 254 -314 l 286 -240 b 366 -296 298 -273 330 -296 b 450 -220 418 -296 450 -267 b 326 -131 450 -170 404 -136 b 267 -129 309 -130 290 -129 l 338 -9 b 66 338 164 8 66 157 b 370 688 66 515 166 688 b 642 502 493 688 592 624 l 557 469 b 370 606 525 553 456 606 b 157 338 224 606 157 475 b 370 71 157 198 224 71 "},"ċ":{"ha":689,"x_min":0,"x_max":0,"o":"m 323 958 l 416 958 l 416 819 l 323 819 m 371 -10 b 66 338 176 -10 66 146 b 370 688 66 515 166 688 b 642 502 493 688 592 624 l 557 469 b 370 606 525 553 456 606 b 157 338 224 606 157 475 b 370 71 157 198 224 71 b 553 208 458 71 526 123 l 635 176 b 371 -10 594 58 496 -10 "},"d":{"ha":823,"x_min":0,"x_max":0,"o":"m 368 -10 b 66 340 184 -10 66 146 b 367 688 66 531 184 688 b 610 528 473 688 568 628 l 610 958 l 701 958 l 701 0 l 616 0 l 613 154 b 368 -10 571 52 477 -10 m 388 71 b 616 340 529 71 616 186 b 388 606 616 491 529 606 b 157 340 247 606 157 490 b 388 71 157 189 247 71 "},"ð":{"ha":781,"x_min":0,"x_max":0,"o":"m 381 -10 b 56 309 197 -10 56 136 b 380 618 56 484 203 618 b 492 579 423 618 463 604 l 370 785 l 294 699 l 241 699 l 348 820 l 262 958 l 360 958 l 406 884 l 470 958 l 524 958 l 431 852 l 658 469 b 705 306 688 418 705 367 b 381 -10 705 131 560 -10 m 380 77 b 614 308 510 77 614 180 b 380 538 614 434 509 538 b 147 308 253 538 147 434 b 380 77 147 180 253 77 "},"ď":{"ha":1239,"x_min":0,"x_max":0,"o":"m 368 -10 b 66 340 184 -10 66 146 b 367 688 66 531 184 688 b 610 528 473 688 568 628 l 610 958 l 701 958 l 701 0 l 616 0 l 613 154 b 368 -10 571 52 477 -10 m 1032 958 l 1126 958 l 1008 673 l 952 673 m 388 71 b 616 340 529 71 616 186 b 388 606 616 491 529 606 b 157 340 247 606 157 490 b 388 71 157 189 247 71 "},"đ":{"ha":823,"x_min":0,"x_max":0,"o":"m 793 795 l 701 795 l 701 0 l 616 0 l 613 154 b 368 -10 571 52 477 -10 b 66 340 184 -10 66 146 b 367 688 66 531 184 688 b 610 528 473 688 568 628 l 610 795 l 363 795 l 363 858 l 610 858 l 610 958 l 701 958 l 701 858 l 793 858 m 388 71 b 616 340 529 71 616 186 b 388 606 616 491 529 606 b 157 340 247 606 157 490 b 388 71 157 189 247 71 "},"ǳ":{"ha":1487,"x_min":0,"x_max":0,"o":"m 610 958 l 701 958 l 701 0 l 616 0 l 613 154 b 368 -10 571 52 477 -10 b 66 340 184 -10 66 146 b 367 688 66 531 184 688 b 610 528 473 688 568 628 m 1433 606 l 989 77 l 1430 77 l 1430 0 l 869 0 l 869 66 l 1323 602 l 892 602 l 892 677 l 1433 677 m 388 71 b 616 340 529 71 616 186 b 388 606 616 491 529 606 b 157 340 247 606 157 490 b 388 71 157 189 247 71 "},"ǆ":{"ha":1487,"x_min":0,"x_max":0,"o":"m 610 958 l 701 958 l 701 0 l 616 0 l 613 154 b 368 -10 571 52 477 -10 b 66 340 184 -10 66 146 b 367 688 66 531 184 688 b 610 528 473 688 568 628 m 1149 749 l 945 958 l 1021 958 l 1149 826 l 1280 958 l 1355 958 m 1433 606 l 989 77 l 1430 77 l 1430 0 l 869 0 l 869 66 l 1323 602 l 892 602 l 892 677 l 1433 677 m 388 71 b 616 340 529 71 616 186 b 388 606 616 491 529 606 b 157 340 247 606 157 490 b 388 71 157 189 247 71 "},"e":{"ha":728,"x_min":0,"x_max":0,"o":"m 382 -10 b 66 336 178 -10 66 141 b 372 688 66 527 174 688 b 665 375 593 688 665 509 b 661 315 665 352 663 325 l 161 315 b 383 71 168 163 247 71 b 582 157 465 71 521 94 l 644 102 b 382 -10 568 23 492 -10 m 576 381 b 574 424 576 395 576 410 b 371 612 566 515 505 612 b 161 381 248 612 173 517 "},"é":{"ha":728,"x_min":0,"x_max":0,"o":"m 467 958 l 563 958 l 387 764 l 319 764 m 382 -10 b 66 336 178 -10 66 141 b 372 688 66 527 174 688 b 665 375 593 688 665 509 b 661 315 665 352 663 325 l 161 315 b 383 71 168 163 247 71 b 582 157 465 71 521 94 l 644 102 b 382 -10 568 23 492 -10 m 576 381 b 574 424 576 395 576 410 b 371 612 566 515 505 612 b 161 381 248 612 173 517 "},"ě":{"ha":728,"x_min":0,"x_max":0,"o":"m 158 958 l 233 958 l 362 826 l 492 958 l 568 958 l 362 749 m 382 -10 b 66 336 178 -10 66 141 b 372 688 66 527 174 688 b 665 375 593 688 665 509 b 661 315 665 352 663 325 l 161 315 b 383 71 168 163 247 71 b 582 157 465 71 521 94 l 644 102 b 382 -10 568 23 492 -10 m 576 381 b 574 424 576 395 576 410 b 371 612 566 515 505 612 b 161 381 248 612 173 517 "},"ê":{"ha":728,"x_min":0,"x_max":0,"o":"m 362 971 l 567 755 l 492 755 l 362 891 l 233 755 l 158 755 m 382 -10 b 66 336 178 -10 66 141 b 372 688 66 527 174 688 b 665 375 593 688 665 509 b 661 315 665 352 663 325 l 161 315 b 383 71 168 163 247 71 b 582 157 465 71 521 94 l 644 102 b 382 -10 568 23 492 -10 m 576 381 b 574 424 576 395 576 410 b 371 612 566 515 505 612 b 161 381 248 612 173 517 "},"ế":{"ha":728,"x_min":0,"x_max":0,"o":"m 467 1238 l 563 1238 l 387 1044 l 319 1044 m 362 971 l 567 755 l 492 755 l 362 891 l 233 755 l 158 755 m 382 -10 b 66 336 178 -10 66 141 b 372 688 66 527 174 688 b 665 375 593 688 665 509 b 661 315 665 352 663 325 l 161 315 b 383 71 168 163 247 71 b 582 157 465 71 521 94 l 644 102 b 382 -10 568 23 492 -10 m 576 381 b 574 424 576 395 576 410 b 371 612 566 515 505 612 b 161 381 248 612 173 517 "},"ề":{"ha":728,"x_min":0,"x_max":0,"o":"m 159 1238 l 255 1238 l 398 1044 l 327 1044 m 362 971 l 567 755 l 492 755 l 362 891 l 233 755 l 158 755 m 382 -10 b 66 336 178 -10 66 141 b 372 688 66 527 174 688 b 665 375 593 688 665 509 b 661 315 665 352 663 325 l 161 315 b 383 71 168 163 247 71 b 582 157 465 71 521 94 l 644 102 b 382 -10 568 23 492 -10 m 576 381 b 574 424 576 395 576 410 b 371 612 566 515 505 612 b 161 381 248 612 173 517 "},"ễ":{"ha":728,"x_min":0,"x_max":0,"o":"m 458 1058 b 269 1179 345 1058 344 1179 b 199 1070 226 1179 199 1139 l 145 1070 b 272 1236 145 1175 194 1237 b 458 1116 376 1237 382 1116 b 523 1231 496 1116 523 1160 l 579 1231 b 458 1058 579 1124 531 1058 m 362 971 l 567 755 l 492 755 l 362 891 l 233 755 l 158 755 m 382 -10 b 66 336 178 -10 66 141 b 372 688 66 527 174 688 b 665 375 593 688 665 509 b 661 315 665 352 663 325 l 161 315 b 383 71 168 163 247 71 b 582 157 465 71 521 94 l 644 102 b 382 -10 568 23 492 -10 m 576 381 b 574 424 576 395 576 410 b 371 612 566 515 505 612 b 161 381 248 612 173 517 "},"ë":{"ha":728,"x_min":0,"x_max":0,"o":"m 200 958 l 277 958 l 277 819 l 200 819 m 447 958 l 523 958 l 523 819 l 447 819 m 382 -10 b 66 336 178 -10 66 141 b 372 688 66 527 174 688 b 665 375 593 688 665 509 b 661 315 665 352 663 325 l 161 315 b 383 71 168 163 247 71 b 582 157 465 71 521 94 l 644 102 b 382 -10 568 23 492 -10 m 576 381 b 574 424 576 395 576 410 b 371 612 566 515 505 612 b 161 381 248 612 173 517 "},"ė":{"ha":728,"x_min":0,"x_max":0,"o":"m 315 958 l 409 958 l 409 819 l 315 819 m 382 -10 b 66 336 178 -10 66 141 b 372 688 66 527 174 688 b 665 375 593 688 665 509 b 661 315 665 352 663 325 l 161 315 b 383 71 168 163 247 71 b 582 157 465 71 521 94 l 644 102 b 382 -10 568 23 492 -10 m 576 381 b 574 424 576 395 576 410 b 371 612 566 515 505 612 b 161 381 248 612 173 517 "},"è":{"ha":728,"x_min":0,"x_max":0,"o":"m 159 958 l 255 958 l 398 764 l 327 764 m 382 -10 b 66 336 178 -10 66 141 b 372 688 66 527 174 688 b 665 375 593 688 665 509 b 661 315 665 352 663 325 l 161 315 b 383 71 168 163 247 71 b 582 157 465 71 521 94 l 644 102 b 382 -10 568 23 492 -10 m 576 381 b 574 424 576 395 576 410 b 371 612 566 515 505 612 b 161 381 248 612 173 517 "},"ē":{"ha":728,"x_min":0,"x_max":0,"o":"m 178 883 l 549 883 l 549 827 l 178 827 m 382 -10 b 66 336 178 -10 66 141 b 372 688 66 527 174 688 b 665 375 593 688 665 509 b 661 315 665 352 663 325 l 161 315 b 383 71 168 163 247 71 b 582 157 465 71 521 94 l 644 102 b 382 -10 568 23 492 -10 m 576 381 b 574 424 576 395 576 410 b 371 612 566 515 505 612 b 161 381 248 612 173 517 "},"ę":{"ha":728,"x_min":0,"x_max":0,"o":"m 665 375 b 661 315 665 352 663 325 l 161 315 b 383 71 168 163 247 71 b 582 157 465 71 521 94 l 644 102 b 483 1 594 50 543 18 b 380 -138 429 -29 380 -78 b 463 -220 380 -196 413 -220 b 564 -165 507 -220 537 -202 l 611 -197 b 465 -278 576 -249 531 -278 b 324 -149 380 -278 324 -229 b 397 -10 324 -90 358 -43 l 382 -10 b 66 336 178 -10 66 141 b 372 688 66 527 174 688 b 665 375 593 688 665 509 m 576 381 b 574 424 576 395 576 410 b 371 612 566 515 505 612 b 161 381 248 612 173 517 l 576 381 "},"ɘ":{"ha":728,"x_min":0,"x_max":0,"o":"m 346 -10 b 84 102 237 -10 160 23 l 146 157 b 345 71 208 94 264 71 b 567 315 481 71 560 163 l 68 315 b 63 375 65 325 63 352 b 357 688 63 509 136 688 b 662 336 554 688 662 527 b 346 -10 662 141 550 -10 m 567 381 b 357 612 555 517 481 612 b 154 424 223 612 162 515 b 153 381 152 410 152 395 l 567 381 "},"ẽ":{"ha":728,"x_min":0,"x_max":0,"o":"m 458 778 b 269 899 345 778 344 899 b 199 790 226 899 199 859 l 145 790 b 272 956 145 895 194 957 b 458 836 376 957 382 836 b 523 951 496 836 523 880 l 579 951 b 458 778 579 844 531 778 m 382 -10 b 66 336 178 -10 66 141 b 372 688 66 527 174 688 b 665 375 593 688 665 509 b 661 315 665 352 663 325 l 161 315 b 383 71 168 163 247 71 b 582 157 465 71 521 94 l 644 102 b 382 -10 568 23 492 -10 m 576 381 b 574 424 576 395 576 410 b 371 612 566 515 505 612 b 161 381 248 612 173 517 "},"ǝ":{"ha":728,"x_min":0,"x_max":0,"o":"m 346 688 b 662 342 550 688 662 536 b 357 -11 662 151 554 -11 b 63 302 136 -11 63 168 b 68 363 63 326 65 353 l 567 363 b 345 606 560 514 481 606 b 146 520 264 606 208 584 l 84 575 b 346 688 160 654 237 688 m 153 296 b 154 254 152 282 152 267 b 357 66 162 162 223 66 b 567 296 481 66 555 161 "},"ə":{"ha":728,"x_min":0,"x_max":0,"o":"m 346 688 b 662 342 550 688 662 536 b 357 -11 662 151 554 -11 b 63 302 136 -11 63 168 b 68 363 63 326 65 353 l 567 363 b 345 606 560 514 481 606 b 146 520 264 606 208 584 l 84 575 b 346 688 160 654 237 688 m 153 296 b 154 254 152 282 152 267 b 357 66 162 162 223 66 b 567 296 481 66 555 161 "},"f":{"ha":479,"x_min":0,"x_max":0,"o":"m 168 602 l 27 602 l 27 677 l 169 677 l 169 783 b 361 968 169 905 248 968 b 462 943 397 968 431 959 l 432 869 b 369 888 410 881 389 888 b 260 774 300 888 260 852 l 260 677 l 459 677 l 459 602 l 260 602 l 260 0 l 168 0 "},"g":{"ha":705,"x_min":0,"x_max":0,"o":"m 373 81 b 654 -106 510 60 654 39 b 371 -311 654 -238 536 -311 b 66 -83 178 -311 66 -216 b 68 -53 66 -71 66 -62 l 170 41 b 81 170 119 64 81 102 b 155 301 81 227 106 268 b 96 455 117 341 96 394 b 353 688 96 592 208 688 b 524 632 419 688 479 668 l 616 713 l 663 655 l 572 578 b 609 450 595 543 609 499 b 355 220 609 311 498 220 b 212 256 301 220 252 233 b 159 184 176 239 159 216 b 373 81 159 110 252 99 m 355 617 b 189 454 255 617 189 549 b 355 294 189 360 252 294 b 520 454 457 294 520 359 b 355 617 520 550 456 617 m 370 -240 b 568 -115 490 -240 568 -194 b 342 3 568 -28 471 -16 b 226 22 304 8 264 14 l 147 -72 b 149 -94 147 -80 148 -87 b 370 -240 158 -189 248 -240 "},"ğ":{"ha":705,"x_min":0,"x_max":0,"o":"m 349 779 b 142 958 210 779 142 842 l 207 958 b 349 834 207 876 261 834 b 490 958 437 834 490 877 l 555 958 b 349 779 555 840 484 779 m 373 81 b 654 -106 510 60 654 39 b 371 -311 654 -238 536 -311 b 66 -83 178 -311 66 -216 b 68 -53 66 -71 66 -62 l 170 41 b 81 170 119 64 81 102 b 155 301 81 227 106 268 b 96 455 117 341 96 394 b 353 688 96 592 208 688 b 524 632 419 688 479 668 l 616 713 l 663 655 l 572 578 b 609 450 595 543 609 499 b 355 220 609 311 498 220 b 212 256 301 220 252 233 b 159 184 176 239 159 216 b 373 81 159 110 252 99 m 355 617 b 189 454 255 617 189 549 b 355 294 189 360 252 294 b 520 454 457 294 520 359 b 355 617 520 550 456 617 m 370 -240 b 568 -115 490 -240 568 -194 b 342 3 568 -28 471 -16 b 226 22 304 8 264 14 l 147 -72 b 149 -94 147 -80 148 -87 b 370 -240 158 -189 248 -240 "},"ģ":{"ha":705,"x_min":0,"x_max":0,"o":"m 383 763 l 288 763 l 449 966 l 507 966 m 373 81 b 654 -106 510 60 654 39 b 371 -311 654 -238 536 -311 b 66 -83 178 -311 66 -216 b 68 -53 66 -71 66 -62 l 170 41 b 81 170 119 64 81 102 b 155 301 81 227 106 268 b 96 455 117 341 96 394 b 353 688 96 592 208 688 b 524 632 419 688 479 668 l 616 713 l 663 655 l 572 578 b 609 450 595 543 609 499 b 355 220 609 311 498 220 b 212 256 301 220 252 233 b 159 184 176 239 159 216 b 373 81 159 110 252 99 m 355 617 b 189 454 255 617 189 549 b 355 294 189 360 252 294 b 520 454 457 294 520 359 b 355 617 520 550 456 617 m 370 -240 b 568 -115 490 -240 568 -194 b 342 3 568 -28 471 -16 b 226 22 304 8 264 14 l 147 -72 b 149 -94 147 -80 148 -87 b 370 -240 158 -189 248 -240 "},"ġ":{"ha":705,"x_min":0,"x_max":0,"o":"m 395 819 l 301 819 l 301 958 l 395 958 m 373 81 b 654 -106 510 60 654 39 b 371 -311 654 -238 536 -311 b 66 -83 178 -311 66 -216 b 68 -53 66 -71 66 -62 l 170 41 b 81 170 119 64 81 102 b 155 301 81 227 106 268 b 96 455 117 341 96 394 b 353 688 96 592 208 688 b 524 632 419 688 479 668 l 616 713 l 663 655 l 572 578 b 609 450 595 543 609 499 b 355 220 609 311 498 220 b 212 256 301 220 252 233 b 159 184 176 239 159 216 b 373 81 159 110 252 99 m 355 617 b 189 454 255 617 189 549 b 355 294 189 360 252 294 b 520 454 457 294 520 359 b 355 617 520 550 456 617 m 370 -240 b 568 -115 490 -240 568 -194 b 342 3 568 -28 471 -16 b 226 22 304 8 264 14 l 147 -72 b 149 -94 147 -80 148 -87 b 370 -240 158 -189 248 -240 "},"ɡ":{"ha":817,"x_min":0,"x_max":0,"o":"m 381 -315 b 90 -144 242 -315 144 -245 l 158 -94 b 382 -236 195 -175 275 -236 b 606 21 515 -236 606 -140 l 606 157 b 364 -3 563 57 471 -3 b 62 343 180 -3 62 153 b 363 688 62 531 180 688 b 606 528 469 688 563 628 l 606 677 l 696 677 l 696 21 b 381 -315 696 -184 570 -315 m 384 80 b 612 343 525 80 612 194 b 384 606 612 491 525 606 b 153 343 242 606 153 490 b 384 80 153 195 242 80 "},"h":{"ha":765,"x_min":0,"x_max":0,"o":"m 123 958 l 214 958 l 214 562 b 425 688 256 645 335 688 b 661 429 583 688 659 576 l 661 0 l 570 0 l 570 408 b 404 606 570 529 523 606 b 214 387 283 606 214 516 l 214 0 l 123 0 "},"ħ":{"ha":765,"x_min":0,"x_max":0,"o":"m 425 688 b 661 429 583 688 659 576 l 661 0 l 570 0 l 570 408 b 404 606 570 529 523 606 b 214 387 283 606 214 516 l 214 0 l 123 0 l 123 774 l -1 774 l -1 837 l 123 837 l 123 958 l 214 958 l 214 837 l 430 837 l 430 774 l 214 774 l 214 562 b 425 688 256 645 335 688 "},"i":{"ha":332,"x_min":0,"x_max":0,"o":"m 119 958 l 213 958 l 213 819 l 119 819 m 121 677 l 210 677 l 210 0 l 121 0 "},"ı":{"ha":332,"x_min":0,"x_max":0,"o":"m 121 677 l 211 677 l 211 0 l 121 0 "},"í":{"ha":332,"x_min":0,"x_max":0,"o":"m 270 958 l 366 958 l 191 764 l 122 764 m 121 677 l 211 677 l 211 0 l 121 0 "},"ǐ":{"ha":332,"x_min":0,"x_max":0,"o":"m -39 958 l 37 958 l 165 826 l 296 958 l 371 958 l 165 749 m 121 677 l 211 677 l 211 0 l 121 0 "},"î":{"ha":332,"x_min":0,"x_max":0,"o":"m 165 971 l 370 755 l 296 755 l 165 891 l 37 755 l -39 755 m 121 677 l 211 677 l 211 0 l 121 0 "},"ï":{"ha":332,"x_min":0,"x_max":0,"o":"m 3 958 l 80 958 l 80 819 l 3 819 m 250 958 l 326 958 l 326 819 l 250 819 m 121 677 l 211 677 l 211 0 l 121 0 "},"ì":{"ha":332,"x_min":0,"x_max":0,"o":"m -38 958 l 58 958 l 201 764 l 130 764 m 121 677 l 211 677 l 211 0 l 121 0 "},"ī":{"ha":332,"x_min":0,"x_max":0,"o":"m -19 883 l 353 883 l 353 827 l -19 827 m 121 677 l 211 677 l 211 0 l 121 0 "},"į":{"ha":332,"x_min":0,"x_max":0,"o":"m 212 819 l 119 819 l 119 958 l 212 958 m 269 -229 b 123 -309 233 -280 189 -309 b -18 -180 38 -309 -18 -260 b 129 0 -18 -85 70 -18 l 121 0 l 121 677 l 211 677 l 211 0 b 38 -170 137 -20 38 -83 b 121 -252 38 -227 71 -252 b 221 -196 164 -252 195 -233 "},"ĩ":{"ha":332,"x_min":0,"x_max":0,"o":"m 261 778 b 72 899 148 778 147 899 b 3 790 29 899 3 859 l -52 790 b 75 956 -52 895 -3 957 b 262 836 180 957 185 836 b 326 951 299 836 326 880 l 382 951 b 261 778 382 844 334 778 m 121 677 l 211 677 l 211 0 l 121 0 "},"j":{"ha":336,"x_min":0,"x_max":0,"o":"m 121 958 l 215 958 l 215 819 l 121 819 m 34 -294 b -76 -272 0 -294 -47 -283 l -52 -194 b 26 -212 -25 -205 6 -212 b 123 -92 92 -212 123 -174 l 123 677 l 213 677 l 213 -85 b 34 -294 213 -212 157 -294 "},"ȷ":{"ha":336,"x_min":0,"x_max":0,"o":"m 34 -294 b -76 -272 0 -294 -47 -283 l -52 -194 b 26 -212 -25 -205 6 -212 b 123 -92 92 -212 123 -174 l 123 677 l 213 677 l 213 -85 b 34 -294 213 -212 157 -294 "},"k":{"ha":741,"x_min":0,"x_max":0,"o":"m 123 958 l 212 958 l 212 309 l 561 677 l 678 677 l 433 425 l 718 0 l 612 0 l 372 368 l 212 201 l 212 0 l 123 0 "},"ķ":{"ha":741,"x_min":0,"x_max":0,"o":"m 123 958 l 212 958 l 212 309 l 561 677 l 678 677 l 433 425 l 718 0 l 612 0 l 372 368 l 212 201 l 212 0 l 123 0 m 372 -77 l 468 -77 l 307 -303 l 249 -303 "},"ĸ":{"ha":740,"x_min":0,"x_max":0,"o":"m 122 677 l 212 677 l 212 309 l 560 677 l 677 677 l 432 425 l 718 0 l 611 0 l 371 368 l 212 201 l 212 0 l 122 0 "},"l":{"ha":373,"x_min":0,"x_max":0,"o":"m 243 -10 b 118 143 146 -10 118 47 l 118 958 l 208 958 l 208 166 b 282 71 208 114 214 71 b 337 77 296 71 317 73 l 338 1 b 243 -10 309 -5 272 -10 "},"ĺ":{"ha":373,"x_min":0,"x_max":0,"o":"m 284 1238 l 380 1238 l 205 1044 l 136 1044 m 243 -10 b 118 143 146 -10 118 47 l 118 958 l 208 958 l 208 166 b 282 71 208 114 214 71 b 337 77 296 71 317 73 l 338 1 b 243 -10 309 -5 272 -10 "},"ľ":{"ha":789,"x_min":0,"x_max":0,"o":"m 243 -10 b 118 143 146 -10 118 47 l 118 958 l 208 958 l 208 166 b 282 71 208 114 214 71 b 337 77 296 71 317 73 l 338 1 b 243 -10 309 -5 272 -10 m 582 958 l 676 958 l 558 673 l 502 673 "},"ļ":{"ha":373,"x_min":0,"x_max":0,"o":"m 243 -10 b 118 143 146 -10 118 47 l 118 958 l 208 958 l 208 166 b 282 71 208 114 214 71 b 337 77 296 71 317 73 l 338 1 b 243 -10 309 -5 272 -10 m 209 -77 l 304 -77 l 143 -303 l 85 -303 "},"ǉ":{"ha":709,"x_min":0,"x_max":0,"o":"m 243 -10 b 118 143 146 -10 118 47 l 118 958 l 208 958 l 208 166 b 282 71 208 114 214 71 b 337 77 296 71 317 73 l 338 1 b 243 -10 309 -5 272 -10 m 494 958 l 588 958 l 588 819 l 494 819 m 407 -294 b 297 -272 373 -294 326 -283 l 321 -194 b 399 -212 348 -205 379 -212 b 496 -92 465 -212 496 -174 l 496 677 l 586 677 l 586 -85 b 407 -294 586 -212 530 -294 "},"ł":{"ha":384,"x_min":0,"x_max":0,"o":"m 342 1 b 248 -10 313 -5 277 -10 b 122 143 151 -10 122 47 l 122 339 l 60 274 l 60 363 l 122 427 l 122 958 l 212 958 l 212 520 l 326 638 l 326 551 l 212 432 l 212 166 b 286 71 212 114 219 71 b 341 77 300 71 321 73 "},"m":{"ha":1182,"x_min":0,"x_max":0,"o":"m 121 677 l 208 677 l 208 559 b 412 688 245 646 321 688 b 621 538 512 688 591 642 b 845 688 661 637 745 688 b 1078 396 1008 688 1078 570 l 1078 0 l 989 0 l 989 385 b 829 604 989 526 944 604 b 645 401 716 604 645 519 l 645 0 l 555 0 l 555 410 b 396 604 555 530 507 604 b 212 401 283 604 212 519 l 212 0 l 122 0 "},"n":{"ha":762,"x_min":0,"x_max":0,"o":"m 121 677 l 211 677 l 211 562 b 423 688 254 645 334 688 b 659 429 581 688 656 576 l 659 0 l 569 0 l 569 408 b 399 605 569 532 511 605 b 211 401 285 605 211 532 l 211 0 l 121 0 "},"ń":{"ha":762,"x_min":0,"x_max":0,"o":"m 489 958 l 585 958 l 410 764 l 341 764 m 121 677 l 211 677 l 211 562 b 423 688 254 645 334 688 b 659 429 581 688 656 576 l 659 0 l 569 0 l 569 408 b 399 605 569 532 511 605 b 211 401 285 605 211 532 l 211 0 l 121 0 "},"ň":{"ha":762,"x_min":0,"x_max":0,"o":"m 180 958 l 256 958 l 385 826 l 515 958 l 590 958 l 385 749 m 121 677 l 211 677 l 211 562 b 423 688 254 645 334 688 b 659 429 581 688 656 576 l 659 0 l 569 0 l 569 408 b 399 605 569 532 511 605 b 211 401 285 605 211 532 l 211 0 l 121 0 "},"ņ":{"ha":762,"x_min":0,"x_max":0,"o":"m 121 677 l 211 677 l 211 562 b 423 688 254 645 334 688 b 659 429 581 688 656 576 l 659 0 l 569 0 l 569 408 b 399 605 569 532 511 605 b 211 401 285 605 211 532 l 211 0 l 121 0 m 345 -77 l 440 -77 l 279 -303 l 221 -303 "},"ŋ":{"ha":785,"x_min":0,"x_max":0,"o":"m 469 -294 b 370 -275 437 -294 397 -284 l 392 -207 b 467 -220 416 -214 446 -220 b 569 -96 539 -220 569 -176 l 569 408 b 399 605 569 532 511 605 b 210 401 285 605 210 532 l 210 0 l 121 0 l 121 677 l 210 677 l 210 562 b 423 688 253 645 334 688 b 658 429 581 688 655 576 l 658 -86 b 469 -294 658 -210 595 -294 "},"ǌ":{"ha":1098,"x_min":0,"x_max":0,"o":"m 883 958 l 977 958 l 977 819 l 883 819 m 121 677 l 211 677 l 211 562 b 423 688 254 645 334 688 b 659 429 581 688 656 576 l 659 0 l 569 0 l 569 408 b 399 605 569 532 511 605 b 211 401 285 605 211 532 l 211 0 l 121 0 m 796 -294 b 686 -272 762 -294 715 -283 l 710 -194 b 788 -212 737 -205 768 -212 b 885 -92 854 -212 885 -174 l 885 677 l 975 677 l 975 -85 b 796 -294 975 -212 919 -294 "},"ñ":{"ha":762,"x_min":0,"x_max":0,"o":"m 480 778 b 291 899 367 778 366 899 b 222 790 248 899 222 859 l 168 790 b 294 956 168 895 216 957 b 481 836 399 957 404 836 b 545 951 518 836 545 880 l 602 951 b 480 778 602 844 553 778 m 121 677 l 211 677 l 211 562 b 423 688 254 645 334 688 b 659 429 581 688 656 576 l 659 0 l 569 0 l 569 408 b 399 605 569 532 511 605 b 211 401 285 605 211 532 l 211 0 l 121 0 "},"o":{"ha":781,"x_min":0,"x_max":0,"o":"m 389 -10 b 62 340 196 -10 62 145 b 389 688 62 534 196 688 b 718 340 582 688 718 534 b 389 -10 718 146 582 -10 m 389 68 b 625 340 536 68 625 191 b 389 610 625 490 536 610 b 155 340 242 610 155 490 b 389 68 155 190 242 68 "},"ó":{"ha":781,"x_min":0,"x_max":0,"o":"m 493 958 l 589 958 l 414 764 l 345 764 m 389 -10 b 62 340 196 -10 62 145 b 389 688 62 534 196 688 b 718 340 582 688 718 534 b 389 -10 718 146 582 -10 m 389 68 b 625 340 536 68 625 191 b 389 610 625 490 536 610 b 155 340 242 610 155 490 b 389 68 155 190 242 68 "},"ǒ":{"ha":781,"x_min":0,"x_max":0,"o":"m 184 958 l 260 958 l 389 826 l 519 958 l 594 958 l 389 749 m 389 -10 b 62 340 196 -10 62 145 b 389 688 62 534 196 688 b 718 340 582 688 718 534 b 389 -10 718 146 582 -10 m 389 68 b 625 340 536 68 625 191 b 389 610 625 490 536 610 b 155 340 242 610 155 490 b 389 68 155 190 242 68 "},"ô":{"ha":781,"x_min":0,"x_max":0,"o":"m 389 971 l 593 755 l 519 755 l 389 891 l 260 755 l 184 755 m 389 -10 b 62 340 196 -10 62 145 b 389 688 62 534 196 688 b 718 340 582 688 718 534 b 389 -10 718 146 582 -10 m 389 68 b 625 340 536 68 625 191 b 389 610 625 490 536 610 b 155 340 242 610 155 490 b 389 68 155 190 242 68 "},"ố":{"ha":781,"x_min":0,"x_max":0,"o":"m 493 1238 l 589 1238 l 414 1044 l 345 1044 m 389 971 l 593 755 l 519 755 l 389 891 l 260 755 l 184 755 m 389 -10 b 62 340 196 -10 62 145 b 389 688 62 534 196 688 b 718 340 582 688 718 534 b 389 -10 718 146 582 -10 m 389 68 b 625 340 536 68 625 191 b 389 610 625 490 536 610 b 155 340 242 610 155 490 b 389 68 155 190 242 68 "},"ồ":{"ha":781,"x_min":0,"x_max":0,"o":"m 185 1238 l 281 1238 l 425 1044 l 353 1044 m 389 971 l 593 755 l 519 755 l 389 891 l 260 755 l 184 755 m 389 -10 b 62 340 196 -10 62 145 b 389 688 62 534 196 688 b 718 340 582 688 718 534 b 389 -10 718 146 582 -10 m 389 68 b 625 340 536 68 625 191 b 389 610 625 490 536 610 b 155 340 242 610 155 490 b 389 68 155 190 242 68 "},"ỗ":{"ha":781,"x_min":0,"x_max":0,"o":"m 484 1058 b 295 1179 371 1058 370 1179 b 226 1070 252 1179 226 1139 l 172 1070 b 298 1236 172 1175 220 1237 b 485 1116 403 1237 408 1116 b 549 1231 522 1116 549 1160 l 606 1231 b 484 1058 606 1124 557 1058 m 389 971 l 593 755 l 519 755 l 389 891 l 260 755 l 184 755 m 389 -10 b 62 340 196 -10 62 145 b 389 688 62 534 196 688 b 718 340 582 688 718 534 b 389 -10 718 146 582 -10 m 389 68 b 625 340 536 68 625 191 b 389 610 625 490 536 610 b 155 340 242 610 155 490 b 389 68 155 190 242 68 "},"ö":{"ha":781,"x_min":0,"x_max":0,"o":"m 227 958 l 303 958 l 303 819 l 227 819 m 473 958 l 549 958 l 549 819 l 473 819 m 389 -10 b 62 340 196 -10 62 145 b 389 688 62 534 196 688 b 718 340 582 688 718 534 b 389 -10 718 146 582 -10 m 389 68 b 625 340 536 68 625 191 b 389 610 625 490 536 610 b 155 340 242 610 155 490 b 389 68 155 190 242 68 "},"ò":{"ha":781,"x_min":0,"x_max":0,"o":"m 185 958 l 281 958 l 425 764 l 353 764 m 389 -10 b 62 340 196 -10 62 145 b 389 688 62 534 196 688 b 718 340 582 688 718 534 b 389 -10 718 146 582 -10 m 389 68 b 625 340 536 68 625 191 b 389 610 625 490 536 610 b 155 340 242 610 155 490 b 389 68 155 190 242 68 "},"ő":{"ha":781,"x_min":0,"x_max":0,"o":"m 374 958 l 457 958 l 295 751 l 227 751 m 606 958 l 703 958 l 527 751 l 458 751 m 389 -10 b 62 340 196 -10 62 145 b 389 688 62 534 196 688 b 718 340 582 688 718 534 b 389 -10 718 146 582 -10 m 389 68 b 625 340 536 68 625 191 b 389 610 625 490 536 610 b 155 340 242 610 155 490 b 389 68 155 190 242 68 "},"ō":{"ha":781,"x_min":0,"x_max":0,"o":"m 204 883 l 576 883 l 576 827 l 204 827 m 389 -10 b 62 340 196 -10 62 145 b 389 688 62 534 196 688 b 718 340 582 688 718 534 b 389 -10 718 146 582 -10 m 389 68 b 625 340 536 68 625 191 b 389 610 625 490 536 610 b 155 340 242 610 155 490 b 389 68 155 190 242 68 "},"ǫ":{"ha":781,"x_min":0,"x_max":0,"o":"m 458 -3 b 296 -170 386 -26 296 -87 b 378 -252 296 -227 328 -252 b 479 -196 422 -252 452 -233 l 526 -229 b 380 -309 491 -280 446 -309 b 239 -180 296 -309 239 -260 b 363 -9 239 -98 307 -36 b 62 340 184 4 62 154 b 389 688 62 534 196 688 b 718 340 582 688 718 534 b 458 -3 718 170 614 29 m 155 340 b 389 68 155 190 242 68 b 625 340 536 68 625 191 b 389 610 625 490 536 610 b 155 340 242 610 155 490 "},"ɔ":{"ha":689,"x_min":0,"x_max":0,"o":"m 318 -10 b 54 176 193 -10 95 58 l 136 208 b 319 71 163 123 231 71 b 532 338 465 71 532 198 b 319 606 532 475 465 606 b 132 469 233 606 164 553 l 47 502 b 319 688 97 624 196 688 b 623 338 523 688 623 515 b 318 -10 623 146 513 -10 "},"ø":{"ha":781,"x_min":0,"x_max":0,"o":"m 589 621 b 718 340 669 558 718 456 b 389 -10 718 146 582 -10 b 224 34 327 -10 271 6 l 203 0 l 153 0 l 189 58 b 62 340 110 121 62 224 b 389 688 62 534 196 688 b 555 644 450 688 507 673 l 575 677 l 624 677 l 589 621 m 155 340 b 233 129 155 255 182 179 l 511 576 b 389 610 477 597 436 610 b 155 340 242 610 155 490 m 389 68 b 625 340 536 68 625 191 b 545 550 625 425 597 500 l 267 102 b 389 68 300 81 342 68 "},"ǿ":{"ha":781,"x_min":0,"x_max":0,"o":"m 414 764 l 345 764 l 493 958 l 589 958 m 589 621 b 718 340 669 558 718 456 b 389 -10 718 146 582 -10 b 224 34 327 -10 271 6 l 203 0 l 153 0 l 189 58 b 62 340 110 121 62 224 b 389 688 62 534 196 688 b 555 644 450 688 507 673 l 575 677 l 624 677 l 589 621 m 155 340 b 233 129 155 255 182 179 l 511 576 b 389 610 477 597 436 610 b 155 340 242 610 155 490 m 389 68 b 625 340 536 68 625 191 b 545 550 625 425 597 500 l 267 102 b 389 68 300 81 342 68 "},"õ":{"ha":781,"x_min":0,"x_max":0,"o":"m 484 778 b 295 899 371 778 370 899 b 226 790 252 899 226 859 l 172 790 b 298 956 172 895 220 957 b 485 836 403 957 408 836 b 549 951 522 836 549 880 l 606 951 b 484 778 606 844 557 778 m 389 -10 b 62 340 196 -10 62 145 b 389 688 62 534 196 688 b 718 340 582 688 718 534 b 389 -10 718 146 582 -10 m 389 68 b 625 340 536 68 625 191 b 389 610 625 490 536 610 b 155 340 242 610 155 490 b 389 68 155 190 242 68 "},"œ":{"ha":1289,"x_min":0,"x_max":0,"o":"m 1225 375 b 1220 315 1225 352 1223 325 l 721 315 b 943 71 728 163 806 71 b 1141 157 1024 71 1080 94 l 1204 102 b 942 -10 1128 23 1051 -10 b 668 149 810 -10 718 52 b 389 -10 611 53 511 -10 b 62 340 196 -10 62 145 b 389 688 62 534 196 688 b 669 528 513 688 613 625 b 931 688 718 624 806 688 b 1225 375 1152 688 1225 509 m 1135 381 b 1134 424 1136 395 1136 410 b 930 612 1126 515 1065 612 b 721 381 807 612 732 517 l 1135 381 m 389 68 b 625 340 536 68 625 191 b 389 610 625 490 536 610 b 155 340 242 610 155 490 b 389 68 155 190 242 68 "},"p":{"ha":813,"x_min":0,"x_max":0,"o":"m 123 677 l 215 677 l 215 528 b 458 688 258 628 351 688 b 745 338 640 688 745 530 b 457 -10 745 146 640 -10 b 215 149 349 -10 258 50 l 215 -281 l 123 -281 m 437 71 b 655 338 579 71 655 189 b 437 605 655 489 579 605 b 208 338 296 605 208 490 b 437 71 208 186 296 71 "},"þ":{"ha":813,"x_min":0,"x_max":0,"o":"m 458 688 b 745 338 640 688 745 530 b 457 -10 745 146 640 -10 b 215 149 349 -10 258 50 l 215 -281 l 123 -281 l 123 958 l 215 958 l 215 528 b 458 688 258 628 351 688 m 437 605 b 208 338 296 605 208 490 b 437 71 208 186 296 71 b 655 338 579 71 655 189 b 437 605 655 489 579 605 "},"q":{"ha":813,"x_min":0,"x_max":0,"o":"m 598 -281 l 598 149 b 356 -10 555 50 464 -10 b 68 338 173 -10 68 146 b 355 688 68 530 173 688 b 598 528 462 688 555 628 l 598 677 l 690 677 l 690 -281 m 376 71 b 606 338 517 71 606 186 b 376 605 606 490 517 605 b 158 338 234 605 158 489 b 376 71 158 189 234 71 "},"r":{"ha":538,"x_min":0,"x_max":0,"o":"m 121 677 l 209 677 l 209 536 b 418 688 243 640 337 688 b 524 656 456 688 494 677 l 483 581 b 406 601 459 594 433 601 b 208 346 315 601 208 530 l 208 0 l 121 0 "},"ŕ":{"ha":538,"x_min":0,"x_max":0,"o":"m 402 958 l 498 958 l 323 764 l 254 764 m 121 677 l 209 677 l 209 536 b 418 688 243 640 337 688 b 524 656 456 688 494 677 l 483 581 b 406 601 459 594 433 601 b 208 346 315 601 208 530 l 208 0 l 121 0 "},"ř":{"ha":538,"x_min":0,"x_max":0,"o":"m 94 958 l 169 958 l 298 826 l 428 958 l 503 958 l 298 749 m 121 677 l 209 677 l 209 536 b 418 688 243 640 337 688 b 524 656 456 688 494 677 l 483 581 b 406 601 459 594 433 601 b 208 346 315 601 208 530 l 208 0 l 121 0 "},"ŗ":{"ha":538,"x_min":0,"x_max":0,"o":"m 121 677 l 209 677 l 209 536 b 418 688 243 640 337 688 b 524 656 456 688 494 677 l 483 581 b 406 601 459 594 433 601 b 208 346 315 601 208 530 l 208 0 l 121 0 m 228 -77 l 323 -77 l 162 -303 l 104 -303 "},"s":{"ha":629,"x_min":0,"x_max":0,"o":"m 323 -10 b 48 168 189 -10 83 65 l 121 200 b 319 65 146 127 214 65 b 475 190 421 65 475 119 b 82 502 475 374 82 257 b 314 688 82 623 184 688 b 552 547 421 688 505 636 l 483 509 b 311 616 450 570 394 616 b 168 513 224 616 168 574 b 564 194 168 345 564 454 b 323 -10 564 58 455 -10 "},"ś":{"ha":629,"x_min":0,"x_max":0,"o":"m 409 958 l 505 958 l 330 764 l 261 764 m 323 -10 b 48 168 189 -10 83 65 l 121 200 b 319 65 146 127 214 65 b 475 190 421 65 475 119 b 82 502 475 374 82 257 b 314 688 82 623 184 688 b 552 547 421 688 505 636 l 483 509 b 311 616 450 570 394 616 b 168 513 224 616 168 574 b 564 194 168 345 564 454 b 323 -10 564 58 455 -10 "},"š":{"ha":629,"x_min":0,"x_max":0,"o":"m 100 958 l 176 958 l 304 826 l 435 958 l 510 958 l 304 749 m 323 -10 b 48 168 189 -10 83 65 l 121 200 b 319 65 146 127 214 65 b 475 190 421 65 475 119 b 82 502 475 374 82 257 b 314 688 82 623 184 688 b 552 547 421 688 505 636 l 483 509 b 311 616 450 570 394 616 b 168 513 224 616 168 574 b 564 194 168 345 564 454 b 323 -10 564 58 455 -10 "},"ş":{"ha":629,"x_min":0,"x_max":0,"o":"m 564 194 b 360 -8 564 71 475 3 l 309 -90 b 353 -96 326 -91 340 -93 b 471 -216 430 -111 471 -153 b 330 -350 471 -296 415 -350 b 199 -262 274 -350 220 -314 l 252 -240 b 332 -296 264 -273 296 -296 b 416 -220 385 -296 416 -267 b 292 -131 416 -170 370 -136 b 233 -129 275 -130 256 -129 l 303 -9 b 48 168 179 -3 81 70 l 121 200 b 319 65 146 127 214 65 b 475 190 421 65 475 119 b 82 502 475 374 82 257 b 314 688 82 623 184 688 b 552 547 421 688 505 636 l 483 509 b 311 616 450 570 394 616 b 168 513 224 616 168 574 b 564 194 168 345 564 454 "},"ș":{"ha":629,"x_min":0,"x_max":0,"o":"m 323 -10 b 48 168 189 -10 83 65 l 121 200 b 319 65 146 127 214 65 b 475 190 421 65 475 119 b 82 502 475 374 82 257 b 314 688 82 623 184 688 b 552 547 421 688 505 636 l 483 509 b 311 616 450 570 394 616 b 168 513 224 616 168 574 b 564 194 168 345 564 454 b 323 -10 564 58 455 -10 m 296 -77 l 391 -77 l 230 -303 l 172 -303 "},"ß":{"ha":816,"x_min":0,"x_max":0,"o":"m 492 -9 b 327 28 434 -9 380 5 l 358 105 b 490 72 404 85 447 72 b 639 211 583 72 639 127 b 432 520 639 353 432 385 b 583 741 432 640 583 630 b 399 891 583 830 506 891 b 211 624 271 891 211 802 l 211 0 l 122 0 l 122 624 b 395 968 122 852 232 968 b 672 734 543 968 672 875 b 515 517 672 586 515 591 b 729 212 515 432 729 399 b 492 -9 729 79 631 -9 "},"t":{"ha":476,"x_min":0,"x_max":0,"o":"m 328 -10 b 143 190 208 -10 143 60 l 143 602 l 31 602 l 31 677 l 144 677 l 144 873 l 233 939 l 233 677 l 422 677 l 422 602 l 233 602 l 233 204 b 342 69 233 109 271 69 b 422 85 372 69 403 78 l 423 3 b 328 -10 402 -3 366 -10 "},"ŧ":{"ha":476,"x_min":0,"x_max":0,"o":"m 233 308 l 233 204 b 342 69 233 109 271 69 b 422 85 372 69 403 78 l 423 3 b 328 -10 402 -3 366 -10 b 143 190 208 -10 143 60 l 143 308 l 17 308 l 17 370 l 143 370 l 143 602 l 31 602 l 31 677 l 144 677 l 144 873 l 233 939 l 233 677 l 422 677 l 422 602 l 233 602 l 233 370 l 448 370 l 448 308 "},"ť":{"ha":892,"x_min":0,"x_max":0,"o":"m 685 958 l 779 958 l 661 673 l 605 673 m 328 -10 b 143 190 208 -10 143 60 l 143 602 l 31 602 l 31 677 l 144 677 l 144 873 l 233 939 l 233 677 l 422 677 l 422 602 l 233 602 l 233 204 b 342 69 233 109 271 69 b 422 85 372 69 403 78 l 423 3 b 328 -10 402 -3 366 -10 "},"ţ":{"ha":476,"x_min":0,"x_max":0,"o":"m 342 -96 b 461 -216 420 -111 461 -153 b 320 -350 461 -296 405 -350 b 189 -262 264 -350 210 -314 l 242 -240 b 322 -296 254 -273 286 -296 b 406 -220 374 -296 406 -267 b 282 -131 406 -170 360 -136 b 223 -129 265 -130 246 -129 l 294 -8 b 143 190 195 4 143 73 l 143 602 l 31 602 l 31 677 l 144 677 l 144 873 l 233 939 l 233 677 l 422 677 l 422 602 l 233 602 l 233 204 b 342 69 233 109 271 69 b 422 85 372 69 403 78 l 423 3 b 349 -9 406 -2 379 -7 l 299 -90 b 342 -96 315 -91 330 -93 "},"ț":{"ha":476,"x_min":0,"x_max":0,"o":"m 328 -10 b 143 190 208 -10 143 60 l 143 602 l 31 602 l 31 677 l 144 677 l 144 873 l 233 939 l 233 677 l 422 677 l 422 602 l 233 602 l 233 204 b 342 69 233 109 271 69 b 422 85 372 69 403 78 l 423 3 b 328 -10 402 -3 366 -10 m 286 -77 l 381 -77 l 220 -303 l 162 -303 "},"u":{"ha":762,"x_min":0,"x_max":0,"o":"m 339 -10 b 104 249 180 -10 107 102 l 104 677 l 193 677 l 193 269 b 363 73 193 146 252 73 b 551 277 477 73 551 145 l 551 677 l 640 677 l 640 0 l 551 0 l 551 115 b 339 -10 509 33 429 -10 "},"ú":{"ha":762,"x_min":0,"x_max":0,"o":"m 483 958 l 579 958 l 404 764 l 335 764 m 339 -10 b 104 249 180 -10 107 102 l 104 677 l 193 677 l 193 269 b 363 73 193 146 252 73 b 551 277 477 73 551 145 l 551 677 l 640 677 l 640 0 l 551 0 l 551 115 b 339 -10 509 33 429 -10 "},"ǔ":{"ha":762,"x_min":0,"x_max":0,"o":"m 174 958 l 250 958 l 378 826 l 509 958 l 584 958 l 378 749 m 339 -10 b 104 249 180 -10 107 102 l 104 677 l 193 677 l 193 269 b 363 73 193 146 252 73 b 551 277 477 73 551 145 l 551 677 l 640 677 l 640 0 l 551 0 l 551 115 b 339 -10 509 33 429 -10 "},"û":{"ha":762,"x_min":0,"x_max":0,"o":"m 378 971 l 583 755 l 509 755 l 378 891 l 250 755 l 174 755 m 339 -10 b 104 249 180 -10 107 102 l 104 677 l 193 677 l 193 269 b 363 73 193 146 252 73 b 551 277 477 73 551 145 l 551 677 l 640 677 l 640 0 l 551 0 l 551 115 b 339 -10 509 33 429 -10 "},"ü":{"ha":762,"x_min":0,"x_max":0,"o":"m 216 958 l 293 958 l 293 819 l 216 819 m 463 958 l 539 958 l 539 819 l 463 819 m 339 -10 b 104 249 180 -10 107 102 l 104 677 l 193 677 l 193 269 b 363 73 193 146 252 73 b 551 277 477 73 551 145 l 551 677 l 640 677 l 640 0 l 551 0 l 551 115 b 339 -10 509 33 429 -10 "},"ǘ":{"ha":762,"x_min":0,"x_max":0,"o":"m 483 1239 l 579 1239 l 404 1045 l 335 1045 m 216 958 l 293 958 l 293 819 l 216 819 m 463 958 l 539 958 l 539 819 l 463 819 m 339 -10 b 104 249 180 -10 107 102 l 104 677 l 193 677 l 193 269 b 363 73 193 146 252 73 b 551 277 477 73 551 145 l 551 677 l 640 677 l 640 0 l 551 0 l 551 115 b 339 -10 509 33 429 -10 "},"ǚ":{"ha":762,"x_min":0,"x_max":0,"o":"m 174 1239 l 250 1239 l 378 1107 l 509 1239 l 584 1239 l 378 1030 m 216 958 l 293 958 l 293 819 l 216 819 m 463 958 l 539 958 l 539 819 l 463 819 m 339 -10 b 104 249 180 -10 107 102 l 104 677 l 193 677 l 193 269 b 363 73 193 146 252 73 b 551 277 477 73 551 145 l 551 677 l 640 677 l 640 0 l 551 0 l 551 115 b 339 -10 509 33 429 -10 "},"ǜ":{"ha":762,"x_min":0,"x_max":0,"o":"m 175 1239 l 271 1239 l 414 1045 l 343 1045 m 216 958 l 293 958 l 293 819 l 216 819 m 463 958 l 539 958 l 539 819 l 463 819 m 339 -10 b 104 249 180 -10 107 102 l 104 677 l 193 677 l 193 269 b 363 73 193 146 252 73 b 551 277 477 73 551 145 l 551 677 l 640 677 l 640 0 l 551 0 l 551 115 b 339 -10 509 33 429 -10 "},"ǖ":{"ha":762,"x_min":0,"x_max":0,"o":"m 194 1164 l 566 1164 l 566 1108 l 194 1108 m 216 958 l 293 958 l 293 819 l 216 819 m 463 958 l 539 958 l 539 819 l 463 819 m 339 -10 b 104 249 180 -10 107 102 l 104 677 l 193 677 l 193 269 b 363 73 193 146 252 73 b 551 277 477 73 551 145 l 551 677 l 640 677 l 640 0 l 551 0 l 551 115 b 339 -10 509 33 429 -10 "},"ù":{"ha":762,"x_min":0,"x_max":0,"o":"m 175 958 l 271 958 l 414 764 l 343 764 m 339 -10 b 104 249 180 -10 107 102 l 104 677 l 193 677 l 193 269 b 363 73 193 146 252 73 b 551 277 477 73 551 145 l 551 677 l 640 677 l 640 0 l 551 0 l 551 115 b 339 -10 509 33 429 -10 "},"ű":{"ha":762,"x_min":0,"x_max":0,"o":"m 364 958 l 447 958 l 285 751 l 216 751 m 596 958 l 692 958 l 517 751 l 448 751 m 339 -10 b 104 249 180 -10 107 102 l 104 677 l 193 677 l 193 269 b 363 73 193 146 252 73 b 551 277 477 73 551 145 l 551 677 l 640 677 l 640 0 l 551 0 l 551 115 b 339 -10 509 33 429 -10 "},"ū":{"ha":762,"x_min":0,"x_max":0,"o":"m 194 883 l 566 883 l 566 827 l 194 827 m 339 -10 b 104 249 180 -10 107 102 l 104 677 l 193 677 l 193 269 b 363 73 193 146 252 73 b 551 277 477 73 551 145 l 551 677 l 640 677 l 640 0 l 551 0 l 551 115 b 339 -10 509 33 429 -10 "},"ų":{"ha":762,"x_min":0,"x_max":0,"o":"m 698 -229 b 552 -309 663 -280 618 -309 b 411 -180 467 -309 411 -260 b 558 0 411 -85 499 -18 l 551 0 l 551 115 b 339 -10 509 33 429 -10 b 104 249 180 -10 107 102 l 104 677 l 193 677 l 193 269 b 363 73 193 146 252 73 b 551 277 477 73 551 145 l 551 677 l 640 677 l 640 0 b 467 -170 566 -20 467 -83 b 550 -252 467 -227 500 -252 b 650 -196 593 -252 624 -233 "},"ů":{"ha":762,"x_min":0,"x_max":0,"o":"m 377 743 b 246 874 304 743 246 802 b 377 1006 246 947 304 1006 b 509 874 449 1006 509 947 b 377 743 509 801 451 743 m 377 793 b 458 875 423 793 458 829 b 377 954 458 920 425 954 b 298 875 332 954 298 920 b 377 793 298 829 332 793 m 339 -10 b 104 249 180 -10 107 102 l 104 677 l 193 677 l 193 269 b 363 73 193 146 252 73 b 551 277 477 73 551 145 l 551 677 l 640 677 l 640 0 l 551 0 l 551 115 b 339 -10 509 33 429 -10 "},"ũ":{"ha":762,"x_min":0,"x_max":0,"o":"m 474 778 b 285 899 361 778 360 899 b 216 790 242 899 216 859 l 161 790 b 288 956 161 895 210 957 b 475 836 393 957 398 836 b 539 951 512 836 539 880 l 595 951 b 474 778 595 844 547 778 m 339 -10 b 104 249 180 -10 107 102 l 104 677 l 193 677 l 193 269 b 363 73 193 146 252 73 b 551 277 477 73 551 145 l 551 677 l 640 677 l 640 0 l 551 0 l 551 115 b 339 -10 509 33 429 -10 "},"v":{"ha":679,"x_min":0,"x_max":0,"o":"m 24 677 l 122 677 l 340 114 l 557 677 l 655 677 l 378 0 l 301 0 "},"w":{"ha":1008,"x_min":0,"x_max":0,"o":"m 37 677 l 133 677 l 281 135 l 463 677 l 545 677 l 726 136 l 876 677 l 972 677 l 774 0 l 689 0 l 504 554 l 319 0 l 234 0 "},"ẃ":{"ha":1008,"x_min":0,"x_max":0,"o":"m 609 958 l 705 958 l 530 764 l 461 764 m 37 677 l 133 677 l 281 135 l 463 677 l 545 677 l 726 136 l 876 677 l 972 677 l 774 0 l 689 0 l 504 554 l 319 0 l 234 0 "},"ŵ":{"ha":1008,"x_min":0,"x_max":0,"o":"m 505 971 l 709 755 l 635 755 l 505 891 l 376 755 l 300 755 m 37 677 l 133 677 l 281 135 l 463 677 l 545 677 l 726 136 l 876 677 l 972 677 l 774 0 l 689 0 l 504 554 l 319 0 l 234 0 "},"ẅ":{"ha":1008,"x_min":0,"x_max":0,"o":"m 342 958 l 419 958 l 419 819 l 342 819 m 589 958 l 665 958 l 665 819 l 589 819 m 37 677 l 133 677 l 281 135 l 463 677 l 545 677 l 726 136 l 876 677 l 972 677 l 774 0 l 689 0 l 504 554 l 319 0 l 234 0 "},"ẁ":{"ha":1008,"x_min":0,"x_max":0,"o":"m 301 958 l 397 958 l 541 764 l 469 764 m 37 677 l 133 677 l 281 135 l 463 677 l 545 677 l 726 136 l 876 677 l 972 677 l 774 0 l 689 0 l 504 554 l 319 0 l 234 0 "},"x":{"ha":682,"x_min":0,"x_max":0,"o":"m 281 340 l 33 677 l 142 677 l 340 402 l 538 677 l 648 677 l 399 340 l 649 0 l 539 0 l 340 278 l 142 0 l 33 0 "},"y":{"ha":692,"x_min":0,"x_max":0,"o":"m 312 8 l 24 677 l 122 677 l 359 113 l 568 677 l 666 677 l 294 -290 l 197 -290 "},"ý":{"ha":692,"x_min":0,"x_max":0,"o":"m 447 958 l 543 958 l 368 764 l 299 764 m 312 8 l 24 677 l 122 677 l 359 113 l 568 677 l 666 677 l 294 -290 l 197 -290 "},"ŷ":{"ha":692,"x_min":0,"x_max":0,"o":"m 342 971 l 547 755 l 473 755 l 342 891 l 214 755 l 138 755 m 312 8 l 24 677 l 122 677 l 359 113 l 568 677 l 666 677 l 294 -290 l 197 -290 "},"ÿ":{"ha":692,"x_min":0,"x_max":0,"o":"m 180 958 l 257 958 l 257 819 l 180 819 m 427 958 l 503 958 l 503 819 l 427 819 m 312 8 l 24 677 l 122 677 l 359 113 l 568 677 l 666 677 l 294 -290 l 197 -290 "},"ỳ":{"ha":692,"x_min":0,"x_max":0,"o":"m 139 958 l 235 958 l 378 764 l 307 764 m 312 8 l 24 677 l 122 677 l 359 113 l 568 677 l 666 677 l 294 -290 l 197 -290 "},"ỹ":{"ha":692,"x_min":0,"x_max":0,"o":"m 438 778 b 249 899 325 778 324 899 b 180 790 206 899 180 859 l 125 790 b 252 956 125 895 174 957 b 439 836 357 957 362 836 b 503 951 476 836 503 880 l 559 951 b 438 778 559 844 511 778 m 312 8 l 24 677 l 122 677 l 359 113 l 568 677 l 666 677 l 294 -290 l 197 -290 "},"z":{"ha":664,"x_min":0,"x_max":0,"o":"m 610 606 l 165 77 l 606 77 l 606 0 l 46 0 l 46 66 l 500 602 l 68 602 l 68 677 l 610 677 "},"ź":{"ha":664,"x_min":0,"x_max":0,"o":"m 351 764 l 283 764 l 431 958 l 527 958 m 610 606 l 165 77 l 606 77 l 606 0 l 46 0 l 46 66 l 500 602 l 68 602 l 68 677 l 610 677 "},"ž":{"ha":664,"x_min":0,"x_max":0,"o":"m 326 749 l 122 958 l 197 958 l 326 826 l 456 958 l 532 958 m 610 606 l 165 77 l 606 77 l 606 0 l 46 0 l 46 66 l 500 602 l 68 602 l 68 677 l 610 677 "},"ż":{"ha":664,"x_min":0,"x_max":0,"o":"m 373 819 l 279 819 l 279 958 l 373 958 m 610 606 l 165 77 l 606 77 l 606 0 l 46 0 l 46 66 l 500 602 l 68 602 l 68 677 l 610 677 "},"ﬁ":{"ha":709,"x_min":0,"x_max":0,"o":"m 589 0 l 506 0 l 506 602 l 234 602 l 234 0 l 145 0 l 145 602 l 27 602 l 27 677 l 145 677 l 145 734 b 382 968 145 895 251 968 b 589 904 468 968 531 945 l 546 842 b 387 895 502 876 450 895 b 234 732 289 895 234 846 l 234 677 l 589 677 "},"ﬂ":{"ha":753,"x_min":0,"x_max":0,"o":"m 624 -10 b 498 143 527 -10 498 47 l 498 858 b 374 895 463 882 422 895 b 229 732 281 895 229 846 l 229 677 l 380 677 l 380 602 l 229 602 l 229 0 l 140 0 l 140 602 l 27 602 l 27 677 l 140 677 l 140 734 b 370 968 140 895 241 968 b 588 903 454 968 506 952 l 588 166 b 663 71 588 114 595 71 b 718 77 677 71 697 73 l 719 1 b 624 -10 689 -5 653 -10 "},"ª":{"ha":705,"x_min":0,"x_max":0,"o":"m 302 478 b 140 620 210 478 140 532 b 340 762 140 718 216 762 l 479 762 b 476 794 479 774 478 785 b 343 918 471 876 428 918 b 200 838 278 918 235 888 l 155 868 b 345 968 208 939 262 968 b 532 778 465 968 532 897 l 532 486 l 482 486 l 481 577 b 302 478 437 511 378 478 m 311 530 b 471 639 382 530 439 570 b 479 713 475 663 478 688 l 343 713 b 199 620 248 713 199 681 b 311 530 199 566 247 530 "},"º":{"ha":689,"x_min":0,"x_max":0,"o":"m 345 486 b 112 728 209 486 112 592 b 345 968 112 862 209 968 b 576 728 479 968 576 862 b 345 486 576 592 479 486 m 345 542 b 512 728 450 542 512 623 b 345 913 512 833 450 913 b 176 728 238 913 176 833 b 345 542 176 623 238 542 "},"ǃ":{"ha":389,"x_min":0,"x_max":0,"o":"m 151 958 l 238 958 l 229 269 l 161 269 m 146 149 l 243 149 l 243 0 l 146 0 "},"μ":{"ha":875,"x_min":0,"x_max":0,"o":"m 182 677 l 271 677 l 271 269 b 441 73 271 146 330 73 b 630 277 555 73 630 145 l 630 677 l 719 677 l 719 0 l 630 0 l 630 115 b 417 -10 587 33 507 -10 b 256 74 341 -10 286 19 l 256 -236 l 182 -236 "},"π":{"ha":729,"x_min":0,"x_max":0,"o":"m 615 -10 b 461 298 513 -10 461 96 l 461 602 l 210 602 l 210 0 l 134 0 l 134 602 l 63 602 l 63 677 l 611 677 l 611 602 l 538 602 l 538 309 b 621 58 538 132 567 58 b 669 68 633 58 650 60 l 693 7 b 615 -10 668 -4 640 -10 "},"⁄":{"ha":195,"x_min":0,"x_max":0,"o":"m 334 958 l 399 958 l -140 0 l -205 0 "},".":{"ha":425,"x_min":0,"x_max":0,"o":"m 168 149 l 258 149 l 258 0 l 168 0 "},",":{"ha":442,"x_min":0,"x_max":0,"o":"m 250 178 l 352 178 l 170 -214 l 108 -214 "},":":{"ha":439,"x_min":0,"x_max":0,"o":"m 171 647 l 268 647 l 268 498 l 171 498 m 171 149 l 268 149 l 268 0 l 171 0 "},";":{"ha":456,"x_min":0,"x_max":0,"o":"m 216 647 l 313 647 l 313 498 l 216 498 m 227 178 l 330 178 l 148 -214 l 85 -214 "},"…":{"ha":986,"x_min":0,"x_max":0,"o":"m 168 149 l 258 149 l 258 0 l 168 0 m 448 149 l 538 149 l 538 0 l 448 0 m 728 149 l 819 149 l 819 0 l 728 0 "},"!":{"ha":425,"x_min":0,"x_max":0,"o":"m 168 958 l 257 958 l 248 270 l 178 270 m 164 149 l 261 149 l 261 0 l 164 0 "},"¡":{"ha":425,"x_min":0,"x_max":0,"o":"m 261 958 l 261 809 l 164 809 l 164 958 m 248 688 l 257 0 l 168 0 l 178 688 "},"?":{"ha":715,"x_min":0,"x_max":0,"o":"m 314 380 b 555 718 314 585 555 528 b 349 893 555 833 478 893 b 149 702 220 893 149 821 l 68 702 b 347 968 69 868 180 968 b 635 717 514 968 635 880 b 391 379 635 475 391 513 l 391 267 l 314 267 m 305 149 l 402 149 l 402 0 l 305 0 "},"¿":{"ha":715,"x_min":0,"x_max":0,"o":"m 410 809 l 313 809 l 313 958 l 410 958 m 401 578 b 160 240 401 373 160 430 b 366 65 160 125 237 65 b 567 256 495 65 566 138 l 647 256 b 369 -10 646 90 536 -10 b 81 241 201 -10 81 79 b 324 579 81 483 324 445 l 324 691 l 401 691 "},"·":{"ha":465,"x_min":0,"x_max":0,"o":"m 232 406 b 142 497 181 406 142 447 b 232 587 142 549 181 587 b 323 497 283 587 323 549 b 232 406 323 447 283 406 "},"•":{"ha":578,"x_min":0,"x_max":0,"o":"m 289 165 b 127 326 200 165 127 237 b 289 488 127 415 200 488 b 450 326 378 488 450 415 b 289 165 450 237 378 165 "},"*":{"ha":635,"x_min":0,"x_max":0,"o":"m 157 627 l 276 753 l 107 777 l 138 867 l 292 800 l 269 958 l 366 958 l 343 800 l 497 867 l 528 777 l 359 753 l 477 627 l 397 572 l 317 730 l 236 572 "},"#":{"ha":964,"x_min":0,"x_max":0,"o":"m 248 291 l 79 291 l 79 356 l 261 356 l 315 619 l 136 619 l 136 688 l 329 688 l 389 958 l 461 958 l 403 685 l 643 685 l 701 958 l 773 958 l 714 685 l 886 685 l 886 619 l 700 619 l 644 356 l 829 356 l 829 291 l 631 291 l 570 0 l 498 0 l 559 291 l 318 291 l 258 0 l 186 0 m 574 356 l 628 619 l 387 619 l 334 356 "},"/":{"ha":594,"x_min":0,"x_max":0,"o":"m 499 958 l 585 958 l 94 -290 l 9 -290 "},"\\":{"ha":616,"x_min":0,"x_max":0,"o":"m 7 1026 l 93 1026 l 609 -290 l 524 -290 "},"‥":{"ha":705,"x_min":0,"x_max":0,"o":"m 168 149 l 258 149 l 258 0 l 168 0 m 448 149 l 538 149 l 538 0 l 448 0 "},"‣":{"ha":607,"x_min":0,"x_max":0,"o":"m 170 549 l 528 343 l 170 137 "},"(":{"ha":385,"x_min":0,"x_max":0,"o":"m 256 -42 b 96 479 155 71 96 306 b 255 1000 96 683 151 875 l 338 1000 b 168 477 219 852 168 661 b 337 -42 168 281 227 94 l 256 -42 "},")":{"ha":385,"x_min":0,"x_max":0,"o":"m 47 -42 b 216 477 158 94 216 281 b 46 1000 216 661 165 852 l 130 1000 b 289 479 234 875 289 683 b 129 -42 289 306 230 71 "},"{":{"ha":424,"x_min":0,"x_max":0,"o":"m 290 -94 b 149 77 198 -94 149 -27 l 149 317 b 67 414 149 377 112 399 l 67 481 b 149 588 115 494 149 516 l 149 848 b 296 1017 149 958 199 1017 l 368 1017 l 368 956 l 325 956 b 227 847 254 956 227 918 l 227 587 b 141 451 227 509 196 470 l 141 444 b 227 319 194 422 227 385 l 227 79 b 318 -33 227 10 257 -33 l 368 -33 l 368 -94 l 290 -94 "},"}":{"ha":424,"x_min":0,"x_max":0,"o":"m 56 -94 l 56 -33 l 106 -33 b 197 79 167 -33 197 10 l 197 319 b 283 444 197 385 230 422 l 283 451 b 197 587 228 470 197 509 l 197 847 b 99 956 197 918 170 956 l 56 956 l 56 1017 l 127 1017 b 275 848 225 1017 275 958 l 275 588 b 357 481 275 516 309 494 l 357 414 b 275 317 312 399 275 377 l 275 77 b 134 -94 275 -27 226 -94 "},"[":{"ha":448,"x_min":0,"x_max":0,"o":"m 146 1041 l 399 1041 l 399 979 l 220 979 l 220 -22 l 399 -22 l 399 -85 l 146 -85 "},"]":{"ha":448,"x_min":0,"x_max":0,"o":"m 48 -85 l 48 -22 l 227 -22 l 227 979 l 48 979 l 48 1041 l 301 1041 l 301 -85 "},"-":{"ha":597,"x_min":0,"x_max":0,"o":"m 115 457 l 481 457 l 481 387 l 115 387 "},"­":{"ha":694,"x_min":0,"x_max":0,"o":"m 115 457 l 578 457 l 578 387 l 115 387 "},"–":{"ha":722,"x_min":0,"x_max":0,"o":"m 115 457 l 606 457 l 606 387 l 115 387 "},"—":{"ha":1524,"x_min":0,"x_max":0,"o":"m 67 457 l 1456 457 l 1456 387 l 67 387 "},"_":{"ha":874,"x_min":0,"x_max":0,"o":"m 164 0 l 711 0 l 711 -69 l 164 -69 "},"―":{"ha":1055,"x_min":0,"x_max":0,"o":"m 115 457 l 939 457 l 939 387 l 115 387 "},"‚":{"ha":385,"x_min":0,"x_max":0,"o":"m 239 178 l 342 178 l 160 -214 l 98 -214 "},"„":{"ha":630,"x_min":0,"x_max":0,"o":"m 229 178 l 332 178 l 150 -214 l 87 -214 m 465 178 l 568 178 l 386 -214 l 323 -214 "},"“":{"ha":623,"x_min":0,"x_max":0,"o":"m 248 567 l 66 958 l 169 958 l 311 567 m 477 567 l 296 958 l 398 958 l 540 567 "},"”":{"ha":623,"x_min":0,"x_max":0,"o":"m 225 958 l 328 958 l 146 567 l 83 567 m 454 958 l 557 958 l 375 567 l 313 567 "},"‘":{"ha":394,"x_min":0,"x_max":0,"o":"m 248 567 l 66 958 l 169 958 l 311 567 "},"’":{"ha":394,"x_min":0,"x_max":0,"o":"m 225 958 l 328 958 l 146 567 l 83 567 "},"«":{"ha":672,"x_min":0,"x_max":0,"o":"m 48 347 l 317 578 l 317 497 l 142 347 l 317 196 l 317 115 m 303 347 l 572 578 l 572 497 l 397 347 l 572 196 l 572 115 "},"»":{"ha":672,"x_min":0,"x_max":0,"o":"m 100 196 l 275 347 l 100 497 l 100 578 l 369 347 l 100 115 m 355 196 l 530 347 l 355 497 l 355 578 l 624 347 l 355 115 "},"‹":{"ha":417,"x_min":0,"x_max":0,"o":"m 48 347 l 317 578 l 317 497 l 142 347 l 317 196 l 317 115 "},"›":{"ha":417,"x_min":0,"x_max":0,"o":"m 100 196 l 275 347 l 100 497 l 100 578 l 369 347 l 100 115 "},"\"":{"ha":631,"x_min":0,"x_max":0,"o":"m 170 958 l 245 958 l 245 637 l 170 637 m 385 958 l 462 958 l 462 637 l 385 637 "},"'":{"ha":414,"x_min":0,"x_max":0,"o":"m 169 958 l 245 958 l 245 657 l 169 657 "}," ":{"ha":355,"x_min":0,"x_max":0,"o":""}," ":{"ha":382,"x_min":0,"x_max":0,"o":""},"¢":{"ha":800,"x_min":0,"x_max":0,"o":"m 393 -8 b 118 338 218 6 118 155 b 393 687 118 507 208 671 l 393 814 l 441 814 l 441 688 b 694 502 555 682 647 616 l 609 469 b 441 604 579 547 518 597 l 441 74 b 606 208 520 80 580 130 l 688 176 b 441 -9 647 64 557 -3 l 441 -143 l 393 -144 m 393 602 b 209 338 267 587 209 466 b 393 76 209 208 268 90 "},"¤":{"ha":957,"x_min":0,"x_max":0,"o":"m 168 170 l 236 237 b 236 623 144 348 144 512 l 169 690 l 218 741 l 286 671 b 671 672 397 764 560 764 l 740 740 l 789 691 l 721 624 b 721 236 813 512 813 348 l 789 170 l 741 119 l 671 187 b 285 187 560 95 397 95 l 216 119 m 307 259 b 649 259 401 163 555 163 b 649 601 744 353 745 507 b 307 600 555 695 401 695 b 307 259 213 506 212 352 "},"$":{"ha":779,"x_min":0,"x_max":0,"o":"m 707 263 b 414 -9 707 104 581 -2 l 414 -176 l 373 -178 l 373 -8 b 64 254 219 1 92 93 l 157 277 b 373 76 174 154 258 85 l 373 470 b 121 724 248 519 121 572 b 373 968 121 867 232 960 l 373 1125 l 414 1125 l 414 968 b 664 814 522 962 607 915 l 587 766 b 414 884 547 839 490 878 l 414 547 b 707 263 551 494 707 441 m 214 728 b 373 563 214 642 285 600 l 373 885 b 214 728 281 878 214 814 m 414 75 b 614 256 536 81 614 156 b 414 454 614 366 520 412 l 414 75 "},"€":{"ha":915,"x_min":0,"x_max":0,"o":"m 561 -10 b 219 334 363 -10 254 141 l 103 334 l 136 402 l 209 402 b 205 479 206 428 205 454 b 210 563 205 508 208 537 l 103 563 l 136 633 l 220 633 b 559 970 257 824 367 970 b 816 837 665 970 754 923 l 758 791 b 559 888 710 857 640 888 b 300 633 412 888 328 780 l 661 633 l 627 565 l 289 565 b 284 485 286 538 284 513 b 288 405 284 458 286 430 l 661 405 l 627 337 l 300 337 b 561 71 326 182 410 71 b 752 165 640 71 705 102 l 808 111 b 561 -10 747 33 661 -10 "},"ƒ":{"ha":696,"x_min":0,"x_max":0,"o":"m 87 -239 b 285 -36 229 -239 285 -184 l 285 609 l 168 609 l 168 677 l 285 677 l 285 765 b 464 974 285 890 359 974 b 612 914 519 974 568 952 l 563 856 b 464 897 530 884 500 897 b 361 765 404 897 361 852 l 361 677 l 546 677 l 546 609 l 361 609 l 361 -43 b 87 -309 361 -227 267 -309 "},"£":{"ha":862,"x_min":0,"x_max":0,"o":"m 817 77 l 817 0 l 119 0 l 119 89 b 305 290 226 119 305 201 b 258 459 305 347 279 404 l 123 459 l 123 536 l 239 536 b 212 690 226 572 212 629 b 490 970 212 848 319 970 b 757 768 618 970 713 886 l 686 741 b 490 893 649 837 580 893 b 289 689 370 893 289 814 b 318 536 289 633 302 577 l 636 536 l 636 459 l 337 459 b 380 291 355 406 380 352 b 239 77 380 171 302 108 "},"₱":{"ha":948,"x_min":0,"x_max":0,"o":"m 862 670 l 792 670 b 471 419 784 509 659 419 l 300 419 l 300 0 l 208 0 l 208 670 l 116 670 l 116 712 l 208 712 l 208 958 l 471 958 b 792 712 654 958 780 868 l 862 712 m 300 712 l 699 712 b 471 871 688 812 610 871 l 300 871 m 471 507 b 700 670 616 507 692 565 l 300 670 l 300 507 l 471 507 "},"₳":{"ha":1091,"x_min":0,"x_max":0,"o":"m 228 210 l 125 210 l 125 291 l 259 291 l 309 429 l 125 429 l 125 510 l 342 510 l 507 958 l 585 958 l 750 510 l 965 510 l 965 429 l 782 429 l 832 291 l 965 291 l 965 210 l 863 210 l 940 0 l 840 0 l 765 210 l 327 210 l 253 0 l 151 0 m 658 510 l 547 828 l 435 510 m 736 291 l 688 429 l 406 429 l 357 291 "},"₴":{"ha":1006,"x_min":0,"x_max":0,"o":"m 883 616 l 883 550 l 119 550 l 119 616 l 629 616 b 690 728 666 644 690 679 b 515 886 690 819 614 886 b 317 766 427 886 362 846 l 240 814 b 512 968 301 922 395 968 b 783 724 662 968 783 873 b 747 616 783 680 769 644 m 119 438 l 883 438 l 883 373 l 353 373 b 290 252 316 344 290 307 b 509 75 290 145 381 75 b 744 257 630 75 719 140 l 836 236 b 503 -9 800 77 665 -9 b 197 241 331 -9 197 92 b 248 373 197 302 221 343 l 119 373 "},"₸":{"ha":988,"x_min":0,"x_max":0,"o":"m 113 958 l 875 958 l 875 880 l 113 880 m 448 667 l 113 667 l 113 744 l 875 744 l 875 667 l 541 667 l 541 0 l 448 0 "},"₽":{"ha":934,"x_min":0,"x_max":0,"o":"m 241 213 l 118 213 l 118 287 l 241 287 l 241 427 l 118 427 l 118 507 l 241 507 l 241 958 l 505 958 b 827 687 698 958 827 859 b 505 427 827 515 700 427 l 334 427 l 334 287 l 553 287 l 553 213 l 334 213 l 334 0 l 241 0 m 505 507 b 734 687 658 507 734 571 b 505 871 734 803 655 871 l 334 871 l 334 507 "},"¥":{"ha":989,"x_min":0,"x_max":0,"o":"m 446 152 l 201 152 l 201 226 l 446 226 l 446 360 l 201 360 l 201 434 l 405 434 l 82 958 l 195 958 l 494 457 l 794 958 l 907 958 l 585 434 l 787 434 l 787 360 l 543 360 l 543 226 l 787 226 l 787 152 l 543 152 l 543 0 l 446 0 "},"+":{"ha":865,"x_min":0,"x_max":0,"o":"m 398 389 l 85 389 l 85 459 l 398 459 l 398 772 l 467 772 l 467 459 l 779 459 l 779 389 l 467 389 l 467 77 l 398 77 "},"−":{"ha":838,"x_min":0,"x_max":0,"o":"m 176 461 l 662 461 l 662 392 l 176 392 "},"×":{"ha":751,"x_min":0,"x_max":0,"o":"m 376 382 l 155 161 l 105 210 l 326 431 l 105 652 l 155 701 l 375 480 l 596 701 l 646 651 l 425 431 l 646 210 l 596 161 "},"÷":{"ha":675,"x_min":0,"x_max":0,"o":"m 286 744 l 383 744 l 383 595 l 286 595 m 88 461 l 581 461 l 581 392 l 88 392 m 286 245 l 383 245 l 383 96 l 286 96 "},"=":{"ha":897,"x_min":0,"x_max":0,"o":"m 182 627 l 715 627 l 715 550 l 182 550 m 182 361 l 715 361 l 715 284 l 182 284 "},"≠":{"ha":804,"x_min":0,"x_max":0,"o":"m 258 284 l 135 284 l 135 361 l 304 361 l 409 550 l 135 550 l 135 627 l 456 627 l 640 958 l 705 958 l 521 627 l 667 627 l 667 550 l 474 550 l 370 361 l 667 361 l 667 284 l 323 284 l 166 0 l 100 0 "},">":{"ha":871,"x_min":0,"x_max":0,"o":"m 94 92 l 659 415 l 94 739 l 127 798 l 800 415 l 127 33 "},"<":{"ha":871,"x_min":0,"x_max":0,"o":"m 71 415 l 743 798 l 777 739 l 212 415 l 777 92 l 743 33 "},"≥":{"ha":917,"x_min":0,"x_max":0,"o":"m 129 217 l 694 540 l 129 863 l 163 923 l 835 540 l 163 157 m 792 -69 l 104 -69 l 104 0 l 792 0 "},"≤":{"ha":917,"x_min":0,"x_max":0,"o":"m 82 540 l 754 923 l 788 863 l 222 540 l 788 217 l 754 157 m 812 0 l 812 -69 l 125 -69 l 125 0 "},"±":{"ha":918,"x_min":0,"x_max":0,"o":"m 425 445 l 102 445 l 102 515 l 425 515 l 425 831 l 494 831 l 494 515 l 817 515 l 817 445 l 494 445 l 494 127 l 425 127 m 102 0 l 809 0 l 809 -69 l 102 -69 "},"≈":{"ha":854,"x_min":0,"x_max":0,"o":"m 546 484 b 304 653 402 484 409 653 b 215 515 248 653 215 600 l 146 515 b 304 715 146 637 208 715 b 546 546 453 715 447 546 b 637 699 601 546 637 608 l 707 699 b 546 484 707 571 643 484 m 546 183 b 304 353 402 183 409 353 b 215 215 248 353 215 300 l 146 215 b 304 415 146 336 208 415 b 546 245 453 415 447 245 b 637 399 601 245 637 308 l 707 399 b 546 183 707 270 643 183 "},"~":{"ha":852,"x_min":0,"x_max":0,"o":"m 546 253 b 304 422 402 253 409 422 b 215 285 248 422 215 370 l 146 285 b 304 485 146 406 208 485 b 546 315 453 485 447 315 b 637 468 601 315 637 377 l 707 468 b 546 253 707 340 643 253 "},"¬":{"ha":903,"x_min":0,"x_max":0,"o":"m 636 460 l 109 460 l 109 541 l 722 541 l 722 197 l 636 197 "},"^":{"ha":788,"x_min":0,"x_max":0,"o":"m 393 992 l 707 310 l 611 310 l 393 818 l 177 310 l 81 310 "},"∞":{"ha":1380,"x_min":0,"x_max":0,"o":"m 387 241 b 127 495 233 241 127 351 b 387 748 127 639 233 748 b 686 557 500 748 606 670 b 992 748 774 671 880 748 b 1251 495 1146 748 1251 639 b 992 241 1251 351 1146 241 b 686 433 879 241 773 319 b 387 241 606 319 499 241 m 397 315 b 645 495 479 315 570 375 b 397 674 570 616 479 674 b 208 495 289 674 208 600 b 397 315 208 390 289 315 m 982 315 b 1171 495 1090 315 1171 390 b 982 674 1171 600 1090 674 b 727 495 892 674 801 602 b 982 315 802 387 892 315 "},"∫":{"ha":687,"x_min":0,"x_max":0,"o":"m 66 -245 b 287 -45 225 -245 287 -190 l 287 768 b 479 974 287 886 372 974 b 624 918 528 974 580 955 l 575 860 b 479 897 543 886 510 897 b 363 764 415 897 363 847 l 363 -47 b 66 -322 363 -231 257 -322 "},"Ω":{"ha":1128,"x_min":0,"x_max":0,"o":"m 109 76 l 384 76 l 385 96 b 151 503 242 178 151 338 b 256 783 151 606 191 713 b 564 922 332 867 453 922 b 873 783 675 922 796 867 b 977 501 936 713 977 604 b 749 93 977 323 888 163 l 749 73 l 1018 73 l 1018 0 l 652 0 l 652 111 b 898 500 802 147 898 299 b 818 729 898 587 867 675 b 564 845 754 800 654 845 b 311 729 473 845 374 800 b 230 500 261 674 230 587 b 475 111 230 309 326 157 l 475 0 l 109 0 "},"∆":{"ha":929,"x_min":0,"x_max":0,"o":"m 465 991 l 854 0 l 75 0 m 743 77 l 465 803 l 186 77 "},"∏":{"ha":915,"x_min":0,"x_max":0,"o":"m 193 882 l 121 882 l 121 958 l 793 958 l 793 882 l 722 882 l 722 0 l 646 0 l 646 882 l 269 882 l 269 0 l 193 0 "},"∑":{"ha":892,"x_min":0,"x_max":0,"o":"m 799 873 l 222 873 l 597 479 l 222 85 l 799 85 l 799 0 l 87 0 l 87 61 l 475 479 l 87 897 l 87 958 l 799 958 "},"√":{"ha":865,"x_min":0,"x_max":0,"o":"m 176 378 l 75 378 l 75 455 l 230 455 l 362 106 l 710 958 l 792 958 l 357 -91 "},"µ":{"ha":875,"x_min":0,"x_max":0,"o":"m 182 677 l 271 677 l 271 269 b 441 73 271 146 330 73 b 630 277 555 73 630 145 l 630 677 l 719 677 l 719 0 l 630 0 l 630 115 b 417 -10 587 33 507 -10 b 256 74 341 -10 286 19 l 256 -236 l 182 -236 "},"∂":{"ha":920,"x_min":0,"x_max":0,"o":"m 402 -7 b 107 297 220 -7 107 118 b 479 692 107 531 273 692 b 703 511 603 692 670 600 b 699 608 705 545 703 578 b 465 900 686 805 603 900 b 256 765 378 900 294 863 l 189 787 b 472 967 234 901 337 967 b 795 506 694 967 795 789 b 402 -7 795 229 666 -7 m 407 70 b 697 346 581 70 676 203 b 489 617 708 462 654 617 b 191 298 302 617 191 473 b 407 70 191 154 284 70 "},"%":{"ha":1038,"x_min":0,"x_max":0,"o":"m 277 537 b 95 753 155 537 95 645 b 272 968 95 861 154 968 b 453 752 378 968 453 877 b 277 537 453 628 379 537 m 755 958 l 820 958 l 281 0 l 216 0 m 277 600 b 390 752 343 600 390 663 b 272 906 390 835 349 906 b 157 753 192 906 157 829 b 277 600 157 677 193 600 m 766 -10 b 585 205 644 -10 585 98 b 762 422 585 313 644 422 b 943 205 867 422 943 330 b 766 -10 943 81 869 -10 m 766 52 b 880 205 833 52 880 115 b 762 359 880 288 839 359 b 647 205 682 359 647 281 b 766 52 647 130 682 52 "},"‰":{"ha":1461,"x_min":0,"x_max":0,"o":"m 277 537 b 95 753 155 537 95 645 b 272 968 95 861 154 968 b 453 752 378 968 453 877 b 277 537 453 628 379 537 m 755 958 l 820 958 l 281 0 l 216 0 m 277 600 b 390 752 343 600 390 663 b 272 906 390 835 349 906 b 157 753 192 906 157 829 b 277 600 157 677 193 600 m 766 -10 b 585 205 644 -10 585 98 b 762 422 585 313 644 422 b 943 205 867 422 943 330 b 766 -10 943 81 869 -10 m 1190 -10 b 1008 205 1068 -10 1008 98 b 1185 422 1008 313 1067 422 b 1366 205 1291 422 1366 330 b 1190 -10 1366 81 1293 -10 m 766 52 b 880 205 833 52 880 115 b 762 359 880 288 839 359 b 647 205 682 359 647 281 b 766 52 647 130 682 52 m 1190 52 b 1303 205 1256 52 1303 115 b 1185 359 1303 288 1263 359 b 1071 205 1105 359 1071 281 b 1190 52 1071 130 1105 52 "},"‱":{"ha":1885,"x_min":0,"x_max":0,"o":"m 277 537 b 95 753 155 537 95 645 b 272 968 95 861 154 968 b 453 752 378 968 453 877 b 277 537 453 628 379 537 m 755 958 l 820 958 l 281 0 l 216 0 m 277 600 b 390 752 343 600 390 663 b 272 906 390 835 349 906 b 157 753 192 906 157 829 b 277 600 157 677 193 600 m 766 -10 b 585 205 644 -10 585 98 b 762 422 585 313 644 422 b 943 205 867 422 943 330 b 766 -10 943 81 869 -10 m 1190 -10 b 1008 205 1068 -10 1008 98 b 1185 422 1008 313 1067 422 b 1366 205 1291 422 1366 330 b 1190 -10 1366 81 1293 -10 m 1613 -10 b 1432 205 1492 -10 1432 98 b 1609 422 1432 313 1491 422 b 1790 205 1714 422 1790 330 b 1613 -10 1790 81 1716 -10 m 766 52 b 880 205 833 52 880 115 b 762 359 880 288 839 359 b 647 205 682 359 647 281 b 766 52 647 130 682 52 m 1190 52 b 1303 205 1256 52 1303 115 b 1185 359 1303 288 1263 359 b 1071 205 1105 359 1071 281 b 1190 52 1071 130 1105 52 m 1613 52 b 1727 205 1680 52 1727 115 b 1609 359 1727 288 1686 359 b 1495 205 1529 359 1495 281 b 1613 52 1495 130 1529 52 "},"→":{"ha":1561,"x_min":0,"x_max":0,"o":"m 789 121 l 1284 399 l 83 397 l 83 467 l 1284 468 l 789 743 l 820 804 l 1489 433 l 820 60 "},"←":{"ha":1561,"x_min":0,"x_max":0,"o":"m 72 433 l 741 804 l 772 743 l 277 468 l 1478 467 l 1478 397 l 277 399 l 772 121 l 741 60 "},"◊":{"ha":806,"x_min":0,"x_max":0,"o":"m 83 479 l 338 958 l 468 958 l 722 479 l 468 0 l 338 0 m 413 50 l 633 479 l 413 908 l 393 908 l 173 479 l 393 50 "},"":{"ha":1227,"x_min":0,"x_max":0,"o":"m 614 -41 b 89 484 323 -41 89 193 b 614 1008 89 774 323 1008 b 1139 484 904 1008 1139 774 b 614 -41 1139 193 904 -41 m 614 7 b 1090 484 878 7 1090 220 b 614 960 1090 747 878 960 b 138 484 350 960 138 747 b 614 7 138 220 350 7 m 340 278 b 317 301 328 278 317 288 l 317 665 b 340 690 317 679 328 690 b 366 665 354 690 366 679 l 366 301 b 340 278 366 288 354 278 m 614 278 b 590 301 600 278 590 288 l 590 665 b 614 690 590 679 600 690 b 637 665 628 690 637 679 l 637 301 b 614 278 637 288 628 278 m 886 278 b 871 285 880 278 875 279 l 688 467 b 682 484 684 472 682 478 b 688 500 682 490 684 496 l 871 682 b 886 690 875 688 880 690 b 911 665 899 690 911 677 b 904 648 911 660 909 654 l 739 484 l 904 318 b 911 301 909 313 911 307 b 886 278 911 289 899 278 m 432 460 b 408 484 418 460 408 469 b 432 507 408 497 418 507 l 522 507 b 547 484 536 507 547 497 b 522 460 547 469 536 460 l 432 460 "},"@":{"ha":1433,"x_min":0,"x_max":0,"o":"m 711 -239 b 108 351 381 -239 108 -17 b 724 975 108 705 359 975 b 1328 376 1087 975 1328 709 b 1017 -45 1328 168 1232 -45 b 867 106 923 -45 871 9 b 867 191 865 130 865 158 b 619 37 812 103 727 37 b 408 284 480 37 408 142 b 744 712 408 466 525 712 b 929 559 848 712 912 655 l 954 677 l 1027 675 b 926 163 1001 536 935 294 b 1015 29 919 82 937 29 b 1256 377 1187 29 1256 208 b 724 904 1256 671 1046 904 b 179 352 400 904 179 667 b 712 -166 179 24 422 -166 b 895 -136 779 -166 836 -155 l 920 -204 b 711 -239 852 -228 787 -239 m 625 110 b 900 469 807 110 900 316 b 753 639 900 578 852 639 b 477 281 571 639 477 435 b 625 110 477 172 526 110 "},"&":{"ha":960,"x_min":0,"x_max":0,"o":"m 810 -45 l 681 106 b 385 -11 604 32 503 -11 b 93 219 214 -11 93 74 b 332 508 93 369 210 445 b 201 749 292 553 201 647 b 450 967 201 881 317 967 b 683 750 579 967 683 873 b 461 489 683 621 576 551 l 679 237 b 743 466 716 300 738 379 l 831 458 b 736 171 823 346 789 248 l 873 12 m 288 748 b 404 545 288 672 371 585 b 600 749 509 600 600 653 b 450 896 600 831 540 896 b 288 748 357 896 288 838 m 383 66 b 628 168 484 66 567 104 l 387 450 b 180 218 277 391 180 329 b 383 66 180 121 260 66 "},"¶":{"ha":858,"x_min":0,"x_max":0,"o":"m 394 422 b 87 690 235 422 87 521 b 394 958 87 860 235 958 l 458 958 l 458 -167 l 394 -167 m 608 958 l 673 958 l 673 -167 l 608 -167 "},"§":{"ha":809,"x_min":0,"x_max":0,"o":"m 409 -9 b 118 178 275 -9 164 47 l 203 204 b 414 64 243 105 309 64 b 609 182 526 64 609 110 b 146 524 609 355 146 271 b 205 660 146 579 168 624 b 146 777 166 691 146 730 b 397 968 146 896 262 968 b 648 850 515 968 601 923 l 576 808 b 394 898 541 867 484 898 b 222 776 289 898 222 842 b 686 435 222 608 686 692 b 628 300 686 385 668 339 b 686 182 665 270 686 231 b 409 -9 686 56 554 -9 m 551 334 b 609 433 589 357 609 392 b 279 630 609 563 408 572 b 222 526 239 604 222 564 b 551 334 222 399 427 391 "},"©":{"ha":1170,"x_min":0,"x_max":0,"o":"m 585 -13 b 89 479 311 -13 89 207 b 585 972 89 751 311 972 b 1081 479 859 972 1081 751 b 585 -13 1081 207 859 -13 m 585 46 b 1023 479 827 46 1023 240 b 585 913 1023 718 827 913 b 147 479 343 913 147 719 b 585 46 147 239 343 46 m 600 161 b 324 478 425 161 324 302 b 599 797 324 640 414 797 b 846 629 711 797 800 739 l 774 601 b 599 728 744 679 679 728 b 400 478 463 728 400 607 b 600 230 400 347 463 230 b 771 356 682 230 745 278 l 839 330 b 600 161 802 223 713 161 "},"®":{"ha":1170,"x_min":0,"x_max":0,"o":"m 585 -13 b 89 479 311 -13 89 207 b 585 972 89 751 311 972 b 1081 479 859 972 1081 751 b 585 -13 1081 207 859 -13 m 585 46 b 1023 479 827 46 1023 240 b 585 913 1023 718 827 913 b 147 479 343 913 147 719 b 585 46 147 239 343 46 m 431 776 l 597 776 b 794 609 718 776 794 711 b 672 457 794 532 750 477 l 835 182 l 764 182 l 611 450 b 574 449 600 450 587 449 l 492 449 l 492 182 l 431 182 m 602 500 b 733 608 687 501 733 541 b 597 720 733 679 684 720 l 492 720 l 492 500 "},"™":{"ha":840,"x_min":0,"x_max":0,"o":"m 168 904 l 62 904 l 62 958 l 332 958 l 332 904 l 227 904 l 227 595 l 168 595 m 412 958 l 507 958 l 596 704 l 685 958 l 777 958 l 777 595 l 719 595 l 719 895 l 614 618 l 577 618 l 470 899 l 470 595 l 412 595 "},"°":{"ha":658,"x_min":0,"x_max":0,"o":"m 329 578 b 134 774 222 578 134 666 b 329 968 134 881 222 968 b 524 774 436 968 524 881 b 329 578 524 666 436 578 m 329 641 b 462 774 403 641 462 700 b 329 906 462 847 403 906 b 197 774 256 906 197 847 b 329 641 197 700 256 641 "},"|":{"ha":436,"x_min":0,"x_max":0,"o":"m 184 1040 l 252 1040 l 252 -347 l 184 -347 "},"¦":{"ha":443,"x_min":0,"x_max":0,"o":"m 184 1000 l 259 1000 l 259 496 l 184 496 m 184 285 l 259 285 l 259 -208 l 184 -208 "},"†":{"ha":570,"x_min":0,"x_max":0,"o":"m 244 602 l 75 602 l 75 684 l 244 684 l 244 958 l 326 958 l 326 684 l 495 684 l 495 602 l 326 602 l 326 -139 l 244 -139 "},"‡":{"ha":621,"x_min":0,"x_max":0,"o":"m 270 136 l 100 136 l 100 218 l 270 218 l 270 602 l 100 602 l 100 684 l 270 684 l 270 958 l 352 958 l 352 684 l 521 684 l 521 602 l 352 602 l 352 218 l 521 218 l 521 136 l 352 136 l 352 -139 l 270 -139 "},"№":{"ha":1609,"x_min":0,"x_max":0,"o":"m 727 958 l 817 958 l 817 0 l 718 0 l 241 812 l 241 0 l 152 0 l 152 958 l 250 958 l 727 151 m 1242 214 b 967 510 1080 214 967 345 b 1242 803 967 672 1080 803 b 1520 510 1404 803 1520 672 b 1242 214 1520 345 1404 214 m 1242 737 b 1044 510 1118 737 1044 636 b 1242 279 1044 381 1118 279 b 1442 510 1367 279 1442 382 b 1242 737 1442 635 1367 737 m 981 69 l 1487 69 l 1487 0 l 981 0 "},"˵":{"ha":751,"x_min":0,"x_max":0,"o":"m 104 677 l 201 677 l 352 472 l 283 472 m 389 677 l 486 677 l 641 472 l 572 472 "},"˶":{"ha":751,"x_min":0,"x_max":0,"o":"m 110 472 l 264 677 l 362 677 l 179 472 m 399 472 l 550 677 l 646 677 l 468 472 "},"ː":{"ha":393,"x_min":0,"x_max":0,"o":"m 43 677 l 342 694 l 205 403 m 189 275 l 350 0 l 52 -16 "},"ˑ":{"ha":404,"x_min":0,"x_max":0,"o":"m 49 441 l 347 458 l 210 166 "},"̈":{"ha":0,"x_min":0,"x_max":0,"o":"m -441 958 l -364 958 l -364 819 l -441 819 m -194 958 l -118 958 l -118 819 l -194 819 "},"̇":{"ha":0,"x_min":0,"x_max":0,"o":"m -212 958 l -118 958 l -118 819 l -212 819 "},"̀":{"ha":0,"x_min":0,"x_max":0,"o":"m -292 958 l -195 958 l -52 764 l -123 764 "},"́":{"ha":0,"x_min":0,"x_max":0,"o":"m -142 958 l -46 958 l -222 764 l -290 764 "},"̋":{"ha":0,"x_min":0,"x_max":0,"o":"m -373 958 l -290 958 l -452 751 l -521 751 m -141 958 l -45 958 l -220 751 l -289 751 "},"̂":{"ha":0,"x_min":0,"x_max":0,"o":"m -243 971 l -38 755 l -113 755 l -243 891 l -372 755 l -447 755 "},"̌":{"ha":0,"x_min":0,"x_max":0,"o":"m -448 958 l -373 958 l -244 826 l -114 958 l -39 958 l -244 749 "},"̆":{"ha":0,"x_min":0,"x_max":0,"o":"m -290 779 b -497 958 -429 779 -497 842 l -432 958 b -290 834 -432 876 -378 834 b -149 958 -201 834 -149 877 l -84 958 b -290 779 -84 840 -155 779 "},"̊":{"ha":0,"x_min":0,"x_max":0,"o":"m -218 743 b -349 874 -291 743 -349 802 b -218 1006 -349 947 -290 1006 b -85 874 -146 1006 -85 947 b -218 743 -85 801 -144 743 m -218 793 b -137 875 -172 793 -137 829 b -218 954 -137 920 -170 954 b -297 875 -263 954 -297 920 b -218 793 -297 829 -262 793 "},"̃":{"ha":0,"x_min":0,"x_max":0,"o":"m -214 785 b -404 906 -328 785 -328 907 b -473 798 -446 907 -473 866 l -527 798 b -400 964 -527 903 -478 964 b -214 844 -296 964 -290 844 b -149 958 -176 844 -149 888 l -93 958 b -214 785 -93 851 -141 785 "},"̄":{"ha":0,"x_min":0,"x_max":0,"o":"m -486 883 l -115 883 l -115 827 l -486 827 "},"̏":{"ha":0,"x_min":0,"x_max":0,"o":"m -351 751 l -527 958 l -431 958 l -283 751 m -119 751 l -281 958 l -199 958 l -51 751 "},"̒":{"ha":0,"x_min":0,"x_max":0,"o":"m -191 763 l -286 763 l -125 966 l -67 966 "},"̛":{"ha":0,"x_min":0,"x_max":0,"o":"m -280 745 b -162 886 -193 745 -162 804 l -162 958 l -92 958 l -92 892 b -280 684 -92 765 -149 684 "},"̦":{"ha":0,"x_min":0,"x_max":0,"o":"m -142 -77 l -47 -77 l -208 -303 l -266 -303 "},"̧":{"ha":0,"x_min":0,"x_max":0,"o":"m -210 -350 b -341 -262 -267 -350 -320 -314 l -288 -240 b -208 -296 -277 -273 -244 -296 b -125 -220 -156 -296 -125 -267 b -248 -131 -125 -170 -170 -136 b -307 -129 -265 -130 -284 -129 l -232 -1 l -176 -1 l -231 -90 b -188 -96 -215 -91 -201 -93 b -69 -216 -111 -111 -69 -153 b -210 -350 -69 -296 -125 -350 "},"̨":{"ha":0,"x_min":0,"x_max":0,"o":"m -198 -309 b -339 -180 -283 -309 -339 -260 b -182 3 -339 -80 -241 -11 l -110 0 b -283 -170 -184 -20 -283 -83 b -200 -252 -283 -227 -250 -252 b -100 -196 -157 -252 -126 -233 l -52 -229 b -198 -309 -87 -280 -132 -309 "},"̷":{"ha":0,"x_min":0,"x_max":0,"o":"m -570 305 l -157 773 l -157 671 l -570 203 "},"´":{"ha":340,"x_min":0,"x_max":0,"o":"m 198 958 l 294 958 l 119 764 l 50 764 "},"˘":{"ha":581,"x_min":0,"x_max":0,"o":"m 294 779 b 87 958 155 779 87 842 l 152 958 b 294 834 152 876 206 834 b 435 958 382 834 435 877 l 500 958 b 294 779 500 840 429 779 "},"ˇ":{"ha":488,"x_min":0,"x_max":0,"o":"m 42 958 l 117 958 l 246 826 l 376 958 l 452 958 l 246 749 "},"¸":{"ha":404,"x_min":0,"x_max":0,"o":"m 194 -350 b 63 -262 138 -350 84 -314 l 116 -240 b 196 -296 127 -273 160 -296 b 279 -220 248 -296 279 -267 b 156 -131 279 -170 234 -136 b 97 -129 139 -130 120 -129 l 172 -1 l 229 -1 l 173 -90 b 216 -96 189 -91 203 -93 b 335 -216 294 -111 335 -153 b 194 -350 335 -296 279 -350 "},"ˆ":{"ha":484,"x_min":0,"x_max":0,"o":"m 241 971 l 446 755 l 372 755 l 241 891 l 113 755 l 37 755 "},"¨":{"ha":545,"x_min":0,"x_max":0,"o":"m 118 958 l 195 958 l 195 819 l 118 819 m 365 958 l 441 958 l 441 819 l 365 819 "},"˙":{"ha":330,"x_min":0,"x_max":0,"o":"m 124 958 l 218 958 l 218 819 l 124 819 "},"`":{"ha":339,"x_min":0,"x_max":0,"o":"m 49 958 l 145 958 l 288 764 l 217 764 "},"˝":{"ha":557,"x_min":0,"x_max":0,"o":"m 202 958 l 285 958 l 123 751 l 54 751 m 434 958 l 530 958 l 355 751 l 286 751 "},"¯":{"ha":601,"x_min":0,"x_max":0,"o":"m 117 883 l 489 883 l 489 827 l 117 827 "},"˛":{"ha":418,"x_min":0,"x_max":0,"o":"m 220 -309 b 79 -180 135 -309 79 -260 b 236 3 79 -80 177 -11 l 308 0 b 135 -170 234 -20 135 -83 b 218 -252 135 -227 168 -252 b 318 -196 261 -252 292 -233 l 366 -229 b 220 -309 330 -280 286 -309 "},"˚":{"ha":434,"x_min":0,"x_max":0,"o":"m 219 743 b 88 874 146 743 88 802 b 219 1006 88 947 146 1006 b 351 874 291 1006 351 947 b 219 743 351 801 293 743 m 219 793 b 300 875 265 793 300 829 b 219 954 300 920 267 954 b 140 875 174 954 140 920 b 219 793 140 829 174 793 "},"˜":{"ha":618,"x_min":0,"x_max":0,"o":"m 415 785 b 226 906 302 785 301 907 b 157 798 183 907 157 866 l 102 798 b 229 964 102 903 151 964 b 416 844 334 964 339 844 b 480 958 453 844 480 888 l 536 958 b 415 785 536 851 488 785 "},"΄":{"ha":300,"x_min":0,"x_max":0,"o":"m 145 958 l 220 958 l 140 764 l 93 764 "},"΅":{"ha":466,"x_min":0,"x_max":0,"o":"m 241 1239 l 317 1239 l 237 1045 l 189 1045 m 57 958 l 134 958 l 134 819 l 57 819 m 304 958 l 380 958 l 380 819 l 304 819 "},"҃":{"ha":0,"x_min":0,"x_max":0,"o":"m -658 1248 l -185 1248 l -185 1348 l -94 1348 l -94 1162 l -568 1162 l -568 1057 l -658 1057 "}}}
